if (_typeface_js && _typeface_js.loadFace) _typeface_js.loadFace({"glyphs":{"S":{"x_min":0,"x_max":834.140625,"ha":876,"o":"m 161 663 l 161 829 l 227 829 l 227 663 l 592 663 l 592 829 l 657 829 l 657 663 l 834 663 l 834 597 l 657 597 l 657 220 l 834 220 l 834 155 l 657 155 l 657 -3 l 592 -3 l 592 155 l 227 155 l 227 -3 l 161 -3 l 161 155 l 0 155 l 0 220 l 161 220 l 161 597 l 0 597 l 0 663 l 161 663 l 161 663 m 227 597 l 227 220 l 592 220 l 592 597 l 227 597 "},"¦":{"x_min":121.390625,"x_max":280.765625,"ha":294,"o":"m 200 700 q 257 676 233 700 q 280 620 280 653 q 257 563 280 587 q 200 540 233 540 q 144 563 168 540 q 121 620 121 587 q 144 676 121 653 q 200 700 168 700 l 200 700 m 200 325 q 257 301 233 325 q 280 245 280 278 q 257 189 280 212 q 200 166 233 166 q 144 189 168 166 q 121 245 121 212 q 144 301 121 278 q 200 325 168 325 "},"/":{"x_min":121.390625,"x_max":280.765625,"ha":294,"o":"m 200 700 q 257 676 233 700 q 280 620 280 653 q 257 563 280 587 q 200 540 233 540 q 144 563 168 540 q 121 620 121 587 q 144 676 121 653 q 200 700 168 700 l 200 700 m 200 325 q 257 301 233 325 q 280 245 280 278 q 257 189 280 212 q 200 166 233 166 q 144 189 168 166 q 121 245 121 212 q 144 301 121 278 q 200 325 168 325 "},"":{"x_min":121.390625,"x_max":280.765625,"ha":294,"o":"m 200 700 q 257 676 233 700 q 280 620 280 653 q 257 563 280 587 q 200 540 233 540 q 144 563 168 540 q 121 620 121 587 q 144 676 121 653 q 200 700 168 700 l 200 700 m 200 325 q 257 301 233 325 q 280 245 280 278 q 257 189 280 212 q 200 166 233 166 q 144 189 168 166 q 121 245 121 212 q 144 301 121 278 q 200 325 168 325 "},"y":{"x_min":70.53125,"x_max":943.25,"ha":1001,"o":"m 342 388 q 337 674 341 568 q 315 843 332 780 q 260 943 297 907 q 158 1019 223 979 l 158 478 l 342 388 l 342 388 m 337 284 l 70 423 l 70 1138 q 359 992 265 1142 q 441 492 453 841 l 442 3 l 336 3 q 336 144 336 76 q 337 284 336 212 l 337 284 m 842 388 q 837 674 842 568 q 815 843 833 780 q 760 943 796 907 q 658 1019 723 979 l 658 478 l 842 388 l 842 388 m 837 284 l 571 423 l 571 1138 q 859 992 766 1142 q 941 492 953 841 l 942 3 l 836 3 q 836 144 836 76 q 837 284 836 212 "},"Á":{"x_min":121.390625,"x_max":280.765625,"ha":294,"o":"m 200 700 q 257 676 233 700 q 280 620 280 653 q 257 563 280 587 q 200 540 233 540 q 144 563 168 540 q 121 620 121 587 q 144 676 121 653 q 200 700 168 700 l 200 700 m 200 325 q 257 301 233 325 q 280 245 280 278 q 257 189 280 212 q 200 166 233 166 q 144 189 168 166 q 121 245 121 212 q 144 301 121 278 q 200 325 168 325 "},"g":{"x_min":63.765625,"x_max":1310.71875,"ha":1378,"o":"m 733 251 q 638 311 710 311 q 544 250 571 311 q 665 242 597 240 q 733 251 693 244 l 733 251 m 792 269 q 930 342 866 297 q 1074 428 994 387 q 904 509 996 448 q 691 568 811 570 q 458 517 551 565 q 252 404 364 468 q 367 324 313 358 q 476 271 421 290 q 633 362 522 362 q 792 269 750 362 l 792 269 m 646 164 q 498 174 555 164 q 394 205 442 184 q 295 261 346 227 q 162 347 243 296 q 122 346 161 347 q 73 358 83 346 q 64 403 66 366 q 77 440 61 440 q 118 444 84 440 q 155 450 152 448 q 428 600 332 555 q 701 650 524 646 q 924 599 833 652 q 1161 474 1014 545 q 1206 464 1181 464 q 1297 466 1232 464 q 1310 427 1307 466 q 1300 386 1312 388 q 1207 382 1241 375 q 1153 377 1173 389 q 918 235 1042 307 q 646 164 795 163 l 646 164 m 497 453 q 661 461 564 464 q 801 450 758 459 q 808 426 807 449 q 798 402 809 403 q 651 394 704 391 q 497 402 598 396 q 489 426 491 402 q 497 453 488 450 "},"²":{"x_min":121.390625,"x_max":280.765625,"ha":294,"o":"m 200 700 q 257 676 233 700 q 280 620 280 653 q 257 563 280 587 q 200 540 233 540 q 144 563 168 540 q 121 620 121 587 q 144 676 121 653 q 200 700 168 700 l 200 700 m 200 325 q 257 301 233 325 q 280 245 280 278 q 257 189 280 212 q 200 166 233 166 q 144 189 168 166 q 121 245 121 212 q 144 301 121 278 q 200 325 168 325 "},"":{"x_min":121.390625,"x_max":280.765625,"ha":294,"o":"m 200 700 q 257 676 233 700 q 280 620 280 653 q 257 563 280 587 q 200 540 233 540 q 144 563 168 540 q 121 620 121 587 q 144 676 121 653 q 200 700 168 700 l 200 700 m 200 325 q 257 301 233 325 q 280 245 280 278 q 257 189 280 212 q 200 166 233 166 q 144 189 168 166 q 121 245 121 212 q 144 301 121 278 q 200 325 168 325 "},"":{"x_min":121.390625,"x_max":280.765625,"ha":294,"o":"m 200 700 q 257 676 233 700 q 280 620 280 653 q 257 563 280 587 q 200 540 233 540 q 144 563 168 540 q 121 620 121 587 q 144 676 121 653 q 200 700 168 700 l 200 700 m 200 325 q 257 301 233 325 q 280 245 280 278 q 257 189 280 212 q 200 166 233 166 q 144 189 168 166 q 121 245 121 212 q 144 301 121 278 q 200 325 168 325 "},"ë":{"x_min":121.390625,"x_max":280.765625,"ha":294,"o":"m 200 700 q 257 676 233 700 q 280 620 280 653 q 257 563 280 587 q 200 540 233 540 q 144 563 168 540 q 121 620 121 587 q 144 676 121 653 q 200 700 168 700 l 200 700 m 200 325 q 257 301 233 325 q 280 245 280 278 q 257 189 280 212 q 200 166 233 166 q 144 189 168 166 q 121 245 121 212 q 144 301 121 278 q 200 325 168 325 "},"Î":{"x_min":121.390625,"x_max":280.765625,"ha":294,"o":"m 200 700 q 257 676 233 700 q 280 620 280 653 q 257 563 280 587 q 200 540 233 540 q 144 563 168 540 q 121 620 121 587 q 144 676 121 653 q 200 700 168 700 l 200 700 m 200 325 q 257 301 233 325 q 280 245 280 278 q 257 189 280 212 q 200 166 233 166 q 144 189 168 166 q 121 245 121 212 q 144 301 121 278 q 200 325 168 325 "},"e":{"x_min":174.296875,"x_max":592.984375,"ha":625,"o":"m 299 1127 q 390 1143 354 1156 q 461 1104 426 1130 q 527 1015 501 1074 q 554 906 554 956 q 509 806 554 862 q 464 707 465 750 q 503 587 480 655 q 547 457 526 519 q 582 348 568 394 q 592 295 596 303 q 469 216 583 279 q 276 105 354 152 l 276 2 l 174 2 l 175 775 q 187 972 175 870 q 299 1127 198 1073 l 299 1127 m 274 202 q 399 272 325 232 q 481 323 473 311 q 445 479 491 337 q 373 720 400 621 q 407 816 363 757 q 459 912 450 874 q 445 996 470 965 q 395 1040 419 1028 q 346 1027 376 1049 q 299 986 316 1006 q 270 889 267 947 q 274 781 274 831 l 274 202 "},"Ã":{"x_min":121.390625,"x_max":280.765625,"ha":294,"o":"m 200 700 q 257 676 233 700 q 280 620 280 653 q 257 563 280 587 q 200 540 233 540 q 144 563 168 540 q 121 620 121 587 q 144 676 121 653 q 200 700 168 700 l 200 700 m 200 325 q 257 301 233 325 q 280 245 280 278 q 257 189 280 212 q 200 166 233 166 q 144 189 168 166 q 121 245 121 212 q 144 301 121 278 q 200 325 168 325 "},"":{"x_min":121.390625,"x_max":280.765625,"ha":294,"o":"m 200 700 q 257 676 233 700 q 280 620 280 653 q 257 563 280 587 q 200 540 233 540 q 144 563 168 540 q 121 620 121 587 q 144 676 121 653 q 200 700 168 700 l 200 700 m 200 325 q 257 301 233 325 q 280 245 280 278 q 257 189 280 212 q 200 166 233 166 q 144 189 168 166 q 121 245 121 212 q 144 301 121 278 q 200 325 168 325 "},"J":{"x_min":51.546875,"x_max":1057.265625,"ha":1109,"o":"m 267 227 l 267 307 q 196 409 240 366 q 80 487 153 453 q 209 465 173 482 q 270 425 245 449 l 269 872 q 215 1014 269 1020 q 135 942 161 1007 l 51 991 l 79 1043 q 159 1120 108 1096 q 258 1128 210 1144 q 342 1054 307 1113 q 375 884 377 995 l 373 415 q 443 474 413 462 q 553 491 474 486 q 438 404 466 440 q 373 307 410 368 l 373 228 q 463 270 428 265 q 550 280 499 274 q 449 218 484 244 q 373 116 415 191 l 373 9 l 268 9 l 269 123 q 206 221 244 176 q 96 300 167 266 q 210 277 174 290 q 267 227 246 263 l 267 227 m 771 227 l 771 307 q 700 409 743 366 q 583 487 657 453 q 713 465 677 482 q 774 425 749 449 l 773 872 q 719 1014 773 1020 q 640 942 665 1007 l 555 991 l 583 1043 q 663 1120 613 1096 q 763 1128 714 1144 q 846 1054 811 1113 q 878 884 880 995 l 877 415 q 947 474 917 462 q 1057 491 977 486 q 942 404 970 440 q 877 307 914 368 l 877 228 q 967 270 932 265 q 1053 280 1003 274 q 953 218 988 244 q 876 116 919 191 l 876 9 l 772 9 l 773 123 q 710 221 748 176 q 600 300 671 266 q 714 277 678 290 q 771 227 750 263 "},"»":{"x_min":121.390625,"x_max":280.765625,"ha":294,"o":"m 200 700 q 257 676 233 700 q 280 620 280 653 q 257 563 280 587 q 200 540 233 540 q 144 563 168 540 q 121 620 121 587 q 144 676 121 653 q 200 700 168 700 l 200 700 m 200 325 q 257 301 233 325 q 280 245 280 278 q 257 189 280 212 q 200 166 233 166 q 144 189 168 166 q 121 245 121 212 q 144 301 121 278 q 200 325 168 325 "},"©":{"x_min":31.203125,"x_max":3978.8125,"ha":4178,"o":"m 61 1068 q 71 1089 61 1083 q 96 1095 82 1095 q 112 1093 99 1095 q 123 1090 118 1091 q 133 1088 128 1089 q 143 1085 138 1087 q 151 1083 147 1084 q 161 1081 158 1081 q 166 1057 162 1076 q 174 998 168 1034 q 183 943 179 957 q 184 937 183 938 q 191 952 189 937 q 198 998 191 959 q 210 1057 204 1029 q 220 1101 214 1083 q 220 1101 220 1101 q 220 1103 220 1102 q 219 1105 220 1104 q 232 1117 221 1117 q 281 1104 265 1110 q 307 1091 297 1098 q 316 1074 316 1084 l 316 944 q 316 888 316 917 q 315 826 315 858 q 311 717 314 770 q 293 709 311 709 l 279 709 q 255 715 267 709 q 242 727 242 720 q 242 749 242 733 q 244 791 243 764 q 248 889 246 839 q 250 929 249 912 q 251 954 251 945 q 247 967 251 967 q 244 956 244 967 q 240 933 242 946 q 236 904 238 920 q 229 870 232 888 q 222 834 226 853 q 209 773 213 788 q 202 748 204 749 q 199 747 200 748 q 177 752 198 747 q 162 757 162 755 q 145 836 153 782 q 130 937 136 889 q 124 950 129 950 q 121 937 121 950 q 124 865 124 889 q 126 792 126 828 q 127 755 126 774 q 127 715 127 735 q 115 708 127 708 q 63 729 93 708 q 59 757 60 731 q 58 789 59 770 q 57 835 57 809 q 59 912 57 861 q 59 954 59 931 q 59 1003 59 977 q 60 1045 59 1029 q 61 1068 61 1062 l 61 1068 m 437 805 q 436 797 437 804 q 434 788 434 789 q 438 774 434 778 q 447 767 440 769 q 458 771 453 767 q 464 776 460 773 q 474 786 468 780 q 488 798 484 798 q 499 794 493 798 q 514 786 505 792 q 520 773 520 779 q 507 745 520 765 q 482 717 495 724 q 450 708 466 708 q 409 722 430 708 q 381 757 387 737 q 371 817 372 783 q 377 878 372 841 q 426 988 394 978 q 436 985 429 988 q 450 981 443 981 q 484 972 474 977 q 499 957 490 969 q 515 927 509 944 q 523 847 523 905 l 523 830 q 518 823 523 824 q 498 817 515 821 q 437 805 462 812 l 437 805 m 466 870 l 466 879 q 463 909 466 894 q 456 923 461 922 q 444 899 451 923 q 436 859 438 878 q 436 856 436 857 q 436 855 436 855 q 437 851 437 853 q 457 857 450 853 q 466 870 463 859 l 466 870 m 570 749 q 570 763 570 757 q 569 774 569 770 q 570 844 569 809 q 571 914 571 879 q 568 943 571 929 q 595 960 575 960 q 604 957 601 960 q 611 954 610 954 q 619 967 615 956 q 622 977 621 973 q 624 984 623 981 q 632 988 626 988 q 676 973 663 988 q 686 955 684 965 q 689 927 689 946 l 689 906 q 663 869 689 873 q 651 873 652 871 q 648 882 646 887 q 644 891 647 886 q 640 895 642 895 q 636 873 636 893 q 636 850 636 865 q 636 812 636 834 q 637 772 636 789 q 637 744 637 755 l 637 724 q 623 708 637 708 q 596 712 613 708 q 575 722 580 716 q 570 749 570 729 l 570 749 m 744 960 q 771 987 756 987 q 798 977 781 987 q 815 973 807 973 q 829 970 826 971 q 855 935 842 965 q 872 853 872 898 q 871 850 872 852 q 871 847 871 849 q 871 843 871 845 q 871 840 871 841 q 830 720 868 758 q 819 712 828 718 q 802 708 809 708 q 767 718 788 708 q 735 739 746 727 q 716 821 716 758 q 724 895 716 855 q 744 960 731 932 l 744 960 l 744 960 m 778 787 q 786 769 778 771 q 800 787 795 769 q 809 864 809 819 q 809 887 809 878 q 809 897 809 893 q 809 904 809 901 q 802 914 809 914 q 794 902 796 914 q 783 851 788 889 q 778 787 778 817 l 778 787 m 920 967 q 927 983 920 977 q 941 988 935 988 q 976 977 960 988 q 993 949 993 967 q 990 846 993 919 q 988 787 988 812 q 987 744 987 761 q 981 716 987 724 q 959 708 975 708 q 933 716 946 708 q 921 734 921 724 q 921 770 921 754 q 920 798 920 786 q 920 823 920 810 q 920 851 920 836 q 920 880 920 866 q 920 910 920 895 q 920 967 920 929 l 920 967 m 916 1060 q 926 1093 916 1078 q 952 1107 934 1107 q 971 1101 962 1107 q 986 1082 981 1092 q 991 1054 991 1068 q 983 1020 991 1031 q 957 1009 974 1009 q 931 1014 939 1009 q 920 1029 922 1018 q 916 1060 916 1041 l 916 1060 m 1064 941 q 1067 1052 1067 1017 q 1081 1062 1067 1062 l 1089 1062 q 1115 1058 1105 1062 q 1121 1053 1118 1057 q 1127 1049 1123 1050 q 1131 1045 1127 1047 q 1135 1042 1134 1043 q 1135 1038 1135 1041 q 1133 954 1133 1012 q 1155 945 1148 952 q 1161 920 1161 937 q 1161 905 1161 911 q 1161 895 1161 899 q 1156 887 1161 890 q 1131 885 1150 885 q 1131 868 1131 879 q 1131 843 1131 857 q 1130 817 1131 828 q 1130 799 1130 806 q 1131 761 1131 791 q 1131 727 1131 744 q 1127 714 1131 720 q 1116 708 1121 708 q 1097 711 1113 708 q 1079 715 1080 715 q 1068 720 1070 717 q 1062 732 1064 723 q 1062 733 1062 733 q 1062 734 1062 734 q 1062 735 1062 734 q 1062 735 1062 735 l 1062 821 q 1062 830 1062 828 q 1062 863 1062 839 q 1060 878 1062 876 q 1040 889 1045 878 q 1035 920 1035 899 q 1043 935 1035 930 q 1064 941 1049 939 l 1064 941 m 1205 967 q 1211 983 1205 977 q 1226 988 1220 988 q 1261 977 1245 988 q 1278 949 1278 968 q 1275 846 1278 904 q 1272 744 1272 771 q 1266 716 1272 722 q 1245 708 1260 708 q 1218 716 1230 708 q 1206 734 1206 724 q 1206 770 1206 754 q 1206 798 1206 786 q 1206 823 1206 810 q 1205 851 1205 836 q 1205 880 1205 866 q 1205 910 1205 895 q 1205 938 1205 924 q 1205 967 1205 953 l 1205 967 m 1202 1060 q 1211 1093 1202 1079 q 1237 1107 1220 1107 q 1256 1101 1247 1107 q 1270 1082 1265 1093 q 1276 1054 1276 1068 q 1268 1020 1276 1031 q 1242 1009 1259 1009 q 1217 1014 1224 1009 q 1205 1029 1209 1017 q 1202 1060 1202 1038 l 1202 1060 m 1350 954 q 1369 977 1359 967 q 1387 988 1379 988 q 1395 985 1389 988 q 1402 982 1399 982 q 1445 965 1433 977 q 1459 935 1456 953 q 1462 882 1462 915 q 1460 873 1462 874 q 1453 870 1458 870 q 1446 868 1447 868 q 1435 869 1446 868 q 1422 872 1428 869 q 1416 882 1418 874 q 1413 897 1414 887 q 1411 914 1413 899 q 1403 920 1407 920 q 1393 911 1396 920 q 1388 891 1390 904 q 1389 887 1389 889 q 1395 874 1389 879 q 1403 866 1397 872 q 1419 853 1409 861 q 1449 823 1438 837 q 1461 780 1461 809 q 1451 745 1461 762 q 1426 718 1442 728 q 1395 708 1411 708 q 1364 716 1379 708 q 1337 736 1348 723 q 1321 760 1325 748 q 1329 781 1321 770 q 1344 794 1338 792 q 1354 790 1349 794 q 1369 777 1361 785 q 1381 767 1378 769 q 1395 779 1395 767 q 1383 798 1395 789 q 1348 825 1359 813 q 1333 855 1336 836 q 1329 884 1331 863 q 1350 954 1330 918 l 1350 954 m 1524 954 q 1567 988 1538 988 q 1601 975 1587 988 q 1609 973 1601 974 q 1624 968 1616 972 q 1637 952 1630 965 q 1647 880 1647 933 q 1641 859 1647 864 q 1625 853 1635 854 q 1619 852 1623 853 q 1597 866 1598 854 q 1595 882 1596 870 q 1592 899 1594 891 q 1586 906 1589 906 q 1577 889 1580 906 q 1569 846 1572 866 q 1567 800 1567 812 q 1567 789 1567 797 q 1572 775 1567 777 q 1587 787 1582 777 q 1592 797 1589 792 q 1599 810 1595 803 q 1612 827 1605 823 q 1618 828 1614 828 q 1641 816 1629 828 q 1653 796 1653 803 q 1643 755 1653 776 q 1618 721 1632 733 q 1584 707 1601 707 q 1521 742 1544 707 q 1504 821 1506 763 q 1508 871 1506 854 q 1515 920 1510 892 q 1524 954 1520 943 l 1524 954 l 1524 954 m 1699 1112 q 1730 1130 1699 1130 q 1740 1127 1737 1129 q 1743 1124 1741 1126 q 1748 1121 1745 1123 q 1753 1116 1748 1121 q 1758 1112 1754 1115 q 1764 1107 1761 1110 q 1768 1101 1767 1105 q 1770 1091 1770 1097 q 1768 1045 1770 1078 q 1766 984 1766 1011 q 1769 965 1766 967 q 1780 974 1772 966 q 1790 985 1789 984 q 1799 988 1793 988 q 1829 972 1812 988 q 1840 966 1833 969 q 1846 960 1845 963 q 1858 927 1855 950 q 1862 872 1862 902 q 1862 848 1862 859 q 1862 830 1862 838 q 1862 814 1862 822 q 1862 798 1862 806 q 1862 779 1862 790 q 1862 756 1862 769 q 1857 719 1862 719 q 1845 717 1854 718 q 1839 716 1842 716 q 1833 715 1836 715 q 1824 714 1825 714 q 1807 722 1820 714 q 1795 737 1795 730 q 1794 742 1795 741 q 1795 747 1795 743 q 1795 768 1795 752 q 1796 809 1795 783 q 1797 851 1797 833 q 1797 878 1797 868 l 1797 895 q 1790 912 1797 912 q 1782 900 1786 912 q 1779 890 1780 895 q 1776 879 1777 885 q 1770 859 1772 868 q 1765 837 1767 845 q 1763 813 1763 826 l 1763 765 q 1762 729 1763 739 q 1743 708 1762 708 q 1733 710 1737 708 q 1721 715 1728 710 q 1708 720 1719 716 q 1700 757 1702 722 q 1699 785 1700 777 q 1701 892 1700 832 q 1701 948 1701 920 q 1702 1003 1702 975 q 1701 1019 1702 1011 q 1701 1036 1701 1027 q 1700 1078 1701 1043 q 1699 1112 1699 1096 l 1699 1112 m 1970 805 q 1968 797 1970 804 q 1967 788 1967 789 q 1970 774 1967 778 q 1980 767 1974 769 q 1991 771 1985 767 q 2007 786 1991 771 q 2021 798 2017 798 q 2032 794 2026 798 q 2046 786 2038 792 q 2052 773 2052 779 q 2040 745 2052 765 q 2016 717 2028 724 q 1982 708 1999 708 q 1942 722 1963 708 q 1913 757 1920 737 q 1904 817 1904 783 q 1909 878 1904 841 q 1959 988 1926 978 q 1969 985 1963 988 q 1982 981 1976 981 q 2017 972 2006 977 q 2032 957 2025 968 q 2048 927 2041 944 q 2056 847 2056 905 l 2056 830 q 2051 823 2056 824 q 2031 817 2048 821 q 1970 805 1995 812 l 1970 805 m 1999 870 l 1999 879 q 1995 909 1999 894 q 1989 923 1993 922 q 1977 899 1984 923 q 1969 859 1970 876 q 1969 856 1969 857 q 1969 855 1969 855 q 1970 851 1970 853 q 1989 857 1984 853 q 1999 870 1995 859 l 1999 870 m 2339 1117 q 2347 1115 2341 1117 q 2349 1113 2347 1114 q 2355 1110 2351 1112 q 2370 1101 2366 1103 q 2387 1091 2372 1099 q 2404 1082 2398 1086 q 2435 998 2435 1056 q 2430 962 2435 975 q 2409 948 2425 948 q 2375 955 2387 948 q 2358 981 2362 961 q 2357 994 2357 986 q 2355 1009 2355 1007 q 2354 1022 2356 1005 q 2349 1028 2354 1028 q 2338 1019 2342 1028 q 2332 1000 2334 1012 q 2329 983 2331 993 q 2343 944 2330 960 q 2381 907 2355 928 q 2416 873 2406 886 q 2432 815 2432 849 q 2421 762 2432 788 q 2389 722 2409 737 q 2344 708 2368 708 q 2296 722 2318 708 q 2256 762 2273 735 q 2234 815 2239 786 q 2248 834 2235 824 q 2269 842 2258 842 q 2284 836 2278 842 q 2298 817 2292 826 q 2312 798 2304 807 q 2328 790 2318 791 q 2340 796 2336 793 q 2345 802 2343 796 q 2348 813 2348 804 q 2332 850 2348 833 q 2315 868 2323 859 q 2301 884 2307 876 q 2277 913 2288 897 q 2261 948 2267 927 q 2254 995 2254 969 q 2326 1112 2257 1070 q 2339 1117 2331 1117 l 2339 1117 m 2496 954 q 2538 988 2509 988 q 2572 975 2558 988 q 2581 973 2573 974 q 2596 968 2587 972 q 2608 952 2601 965 q 2618 880 2618 933 q 2612 859 2618 864 q 2596 853 2606 854 q 2591 852 2594 853 q 2569 866 2570 853 q 2568 872 2568 868 q 2566 882 2567 876 q 2563 899 2565 891 q 2558 906 2562 906 q 2548 889 2553 906 q 2541 846 2543 865 q 2538 800 2538 809 q 2539 789 2539 794 q 2544 775 2539 777 q 2558 787 2553 777 q 2563 797 2560 792 q 2570 810 2566 803 q 2583 827 2577 823 q 2589 828 2586 828 q 2612 816 2601 828 q 2624 796 2624 803 q 2615 755 2624 776 q 2589 721 2605 735 q 2556 707 2572 707 q 2492 742 2516 707 q 2476 821 2477 764 q 2480 871 2476 842 q 2487 920 2481 895 q 2496 954 2491 942 l 2496 954 l 2496 954 m 2670 1112 q 2702 1130 2670 1130 q 2711 1127 2707 1129 q 2719 1121 2711 1127 q 2724 1116 2724 1116 q 2726 1114 2725 1115 q 2730 1112 2728 1113 q 2736 1107 2732 1111 q 2740 1101 2738 1105 q 2741 1091 2741 1095 q 2739 1045 2741 1078 q 2737 984 2737 1011 q 2741 965 2737 967 q 2752 974 2745 966 q 2761 985 2760 984 q 2771 988 2764 988 q 2800 972 2785 988 q 2811 966 2810 967 q 2817 960 2816 963 q 2830 927 2827 950 q 2833 872 2833 907 q 2833 848 2833 859 q 2833 830 2833 838 q 2833 814 2833 822 q 2834 798 2834 806 q 2834 779 2834 790 q 2834 756 2834 769 q 2828 719 2834 719 q 2817 717 2821 718 q 2811 716 2814 716 q 2805 715 2808 715 q 2795 714 2797 714 q 2779 722 2791 714 q 2766 737 2766 730 q 2765 742 2766 741 q 2766 747 2766 743 q 2766 768 2766 752 q 2767 809 2766 783 q 2769 878 2769 857 l 2769 895 q 2761 912 2769 912 q 2754 900 2756 912 q 2747 879 2749 887 q 2741 859 2741 861 q 2737 837 2738 848 q 2735 813 2736 830 l 2735 765 q 2734 729 2735 734 q 2715 708 2734 708 q 2704 710 2709 708 q 2693 715 2700 710 q 2680 720 2689 716 q 2671 757 2674 722 q 2670 785 2671 777 q 2672 892 2671 832 q 2673 948 2672 920 q 2673 1003 2673 975 q 2672 1036 2673 1024 q 2671 1078 2672 1043 q 2670 1099 2671 1091 q 2670 1112 2670 1108 l 2670 1112 m 2886 749 q 2886 774 2886 769 q 2886 844 2886 809 q 2887 914 2887 879 q 2884 943 2887 933 q 2912 960 2891 960 q 2921 957 2918 960 q 2928 954 2926 954 q 2935 967 2932 956 q 2939 977 2937 973 q 2941 984 2940 981 q 2950 988 2943 988 q 2992 973 2980 988 q 3002 955 3000 965 q 3005 927 3005 946 l 3005 906 q 2979 869 3005 873 q 2968 873 2969 871 q 2964 882 2966 877 q 2961 891 2964 886 q 2957 895 2959 895 q 2952 873 2953 893 q 2952 850 2952 865 q 2953 812 2952 834 q 2954 772 2953 789 q 2954 744 2954 755 l 2954 724 q 2939 708 2954 708 q 2912 712 2930 708 q 2892 722 2897 716 q 2886 749 2886 729 l 2886 749 m 3049 967 q 3056 983 3049 977 q 3071 988 3063 988 q 3106 977 3088 988 q 3122 949 3122 968 q 3119 846 3122 904 q 3116 744 3116 786 q 3110 716 3116 724 q 3089 708 3105 708 q 3063 716 3075 708 q 3050 734 3050 724 q 3050 770 3050 754 q 3050 798 3050 786 q 3050 823 3050 810 q 3050 851 3050 836 q 3050 880 3050 866 q 3049 910 3049 895 q 3049 938 3049 924 q 3049 967 3049 953 l 3049 967 m 3046 1060 q 3055 1093 3046 1078 q 3082 1107 3063 1107 q 3100 1101 3092 1107 q 3114 1082 3109 1093 q 3120 1054 3120 1071 q 3112 1020 3120 1031 q 3087 1009 3103 1009 q 3061 1014 3068 1009 q 3049 1029 3052 1018 q 3046 1060 3046 1041 l 3046 1060 m 3188 880 q 3182 879 3192 882 q 3179 879 3180 879 q 3177 878 3177 878 q 3162 894 3165 881 q 3160 927 3160 905 q 3190 941 3160 938 l 3192 986 q 3197 1065 3192 1028 q 3207 1096 3198 1079 q 3228 1121 3214 1110 q 3256 1130 3240 1130 q 3274 1123 3261 1130 q 3295 1106 3287 1114 q 3310 1087 3306 1095 q 3316 1065 3312 1082 q 3319 1029 3319 1043 q 3318 1004 3319 1013 q 3313 993 3316 994 q 3299 990 3309 990 q 3289 988 3291 990 q 3278 992 3281 989 q 3273 1002 3275 994 q 3270 1020 3270 1016 q 3268 1030 3269 1026 q 3267 1036 3267 1034 q 3262 1040 3265 1040 q 3258 1038 3259 1040 q 3256 1028 3257 1035 q 3255 998 3256 1007 q 3256 963 3256 990 q 3268 954 3256 956 q 3280 952 3272 952 q 3287 950 3283 951 q 3293 949 3290 949 q 3300 912 3300 948 q 3268 887 3300 890 q 3260 885 3264 887 q 3256 877 3256 882 q 3257 834 3257 868 l 3257 729 q 3250 713 3257 718 q 3234 708 3242 708 q 3202 714 3214 708 q 3190 738 3190 720 l 3190 836 q 3189 847 3190 840 q 3189 861 3189 853 q 3189 874 3189 869 q 3188 880 3188 878 l 3188 880 m 3345 941 q 3347 1012 3346 984 q 3348 1052 3348 1039 q 3362 1062 3348 1062 l 3369 1062 q 3395 1058 3386 1062 q 3402 1053 3398 1057 q 3407 1049 3402 1053 q 3411 1045 3407 1048 q 3415 1042 3415 1043 q 3416 1040 3415 1041 q 3416 1038 3416 1039 q 3413 954 3413 1012 q 3435 945 3429 952 q 3442 920 3442 935 q 3441 895 3442 905 q 3437 887 3441 889 q 3412 885 3431 885 q 3411 843 3412 863 q 3411 799 3411 809 q 3411 761 3411 791 q 3412 727 3412 744 q 3407 714 3412 720 q 3396 708 3401 708 q 3378 711 3392 708 q 3360 715 3361 715 q 3348 720 3350 717 q 3342 732 3344 723 q 3343 733 3342 733 q 3343 734 3343 734 q 3343 735 3343 734 q 3343 735 3343 735 l 3343 821 q 3343 826 3343 823 q 3342 830 3342 828 q 3343 845 3342 836 q 3343 863 3343 853 q 3341 878 3343 876 q 3321 889 3325 878 q 3315 920 3315 900 q 3323 935 3316 930 q 3345 941 3331 939 l 3345 941 m 31 258 q 51 362 31 316 q 103 434 70 406 q 172 472 134 461 q 212 478 198 478 q 282 461 247 478 q 342 415 316 444 q 383 347 368 385 q 398 267 398 310 q 374 163 398 211 q 307 86 349 115 q 218 54 267 56 q 148 70 181 54 q 87 115 116 84 q 46 181 61 143 q 31 257 31 219 l 31 258 l 31 258 m 82 288 q 82 268 82 273 q 92 200 82 234 q 121 149 102 168 q 212 105 160 106 q 287 128 252 106 q 332 189 318 150 q 347 272 347 228 q 328 350 345 316 q 280 406 309 385 q 213 427 248 427 q 160 413 183 427 q 119 379 136 401 q 93 334 101 356 q 82 288 84 311 l 82 288 m 307 305 l 265 305 q 251 330 263 320 q 223 340 239 340 q 216 339 219 340 q 212 339 214 339 q 211 339 211 339 q 171 262 171 330 q 187 213 172 231 q 221 195 202 195 q 251 204 237 195 q 264 230 264 214 l 264 233 l 309 233 q 284 171 304 198 q 222 145 262 145 q 167 162 189 145 q 132 207 143 179 q 120 268 120 236 q 130 326 120 299 q 164 372 141 354 q 218 390 186 390 q 277 370 252 390 q 307 305 301 350 l 307 305 m 615 288 q 613 293 615 293 q 604 291 611 293 q 594 288 598 288 q 579 298 587 288 q 570 312 570 308 q 578 328 572 318 q 594 353 585 339 q 611 383 605 370 q 623 415 618 396 q 644 427 625 427 q 667 421 654 427 q 685 412 677 415 q 697 399 697 408 l 697 373 q 697 353 697 363 q 697 335 697 343 q 695 310 696 325 q 693 276 694 296 q 691 215 691 223 q 691 195 691 211 q 692 178 691 188 q 692 156 692 168 q 692 132 692 143 q 693 113 693 122 q 692 101 693 107 q 692 87 692 94 q 692 75 692 80 q 691 68 691 70 q 679 55 690 55 q 642 60 659 55 q 619 77 623 65 q 615 100 615 86 q 613 128 613 111 q 611 154 613 142 q 612 168 611 160 q 613 189 612 177 q 613 209 613 200 q 614 226 613 219 q 614 241 614 233 q 615 257 615 248 q 615 272 615 264 q 615 288 615 280 l 615 288 m 869 262 q 874 307 874 292 q 870 342 874 322 q 853 360 864 360 q 826 307 836 360 q 821 270 821 287 q 826 254 821 257 q 839 250 828 250 q 862 252 849 250 q 869 262 868 253 l 869 262 m 838 187 q 830 183 836 183 q 800 197 818 183 q 767 230 781 211 q 752 264 752 248 q 751 284 751 273 q 756 335 751 313 q 771 378 763 362 q 792 411 779 396 q 814 430 803 425 q 826 434 818 434 q 837 432 834 434 q 843 430 840 432 q 851 428 847 429 q 862 424 856 426 q 897 412 892 415 q 937 360 925 393 q 950 286 950 326 l 950 265 q 931 197 948 240 q 891 115 914 159 q 851 50 866 72 q 836 43 846 43 q 827 46 834 43 q 818 53 823 48 q 808 65 816 55 q 802 73 802 71 q 795 87 797 77 q 800 109 796 100 q 807 122 802 113 q 819 143 812 130 q 839 183 834 169 l 838 187 l 838 187 m 1101 262 q 1106 307 1106 295 q 1101 342 1106 326 q 1085 360 1096 360 q 1057 307 1068 360 q 1052 270 1052 273 q 1057 254 1053 257 q 1071 250 1061 250 q 1093 252 1081 250 q 1101 262 1098 253 l 1101 262 m 1069 187 q 1061 183 1067 183 q 1031 197 1049 183 q 998 230 1012 211 q 983 264 984 250 q 982 284 982 273 q 988 335 982 308 q 1003 378 994 362 q 1024 411 1011 397 q 1045 430 1036 425 q 1058 434 1049 434 q 1069 432 1065 434 q 1082 428 1064 433 q 1093 424 1087 426 q 1128 412 1123 416 q 1169 360 1158 392 q 1181 286 1181 326 l 1181 265 q 1162 197 1178 237 q 1122 115 1143 152 q 1082 50 1102 77 q 1068 43 1077 43 q 1058 46 1065 43 q 1049 53 1055 48 q 1040 65 1045 57 q 1033 73 1032 74 q 1026 87 1028 77 q 1032 109 1027 97 q 1051 143 1034 113 q 1071 183 1066 170 l 1069 187 l 1069 187 m 1300 287 l 1300 285 q 1311 283 1300 283 q 1377 249 1352 276 q 1401 183 1401 223 q 1386 119 1398 146 q 1354 72 1374 90 q 1310 55 1336 55 q 1229 97 1272 55 q 1203 183 1203 124 q 1220 288 1203 232 q 1241 341 1226 307 q 1270 404 1259 383 q 1295 435 1285 432 l 1298 435 q 1320 430 1307 435 q 1342 417 1333 425 q 1351 397 1351 408 q 1350 388 1351 392 q 1322 339 1329 352 q 1300 287 1311 318 l 1300 287 m 1274 142 q 1287 120 1274 122 q 1307 136 1298 122 q 1320 166 1316 151 q 1324 197 1324 183 q 1317 215 1324 209 q 1300 221 1311 221 q 1289 219 1295 221 q 1274 142 1274 212 l 1274 142 m 1463 151 q 1475 167 1466 167 l 1479 167 q 1508 156 1492 164 q 1524 139 1524 148 q 1518 103 1523 124 q 1511 77 1515 90 q 1504 48 1508 63 q 1496 23 1499 33 q 1493 11 1494 14 q 1487 3 1493 3 l 1479 3 q 1451 14 1451 3 q 1450 21 1451 18 q 1450 28 1450 25 q 1454 91 1450 40 q 1463 151 1457 122 l 1463 151 m 1757 101 l 1758 432 q 1765 443 1758 437 q 1779 450 1772 448 q 1787 453 1783 451 q 1795 456 1791 454 q 1820 462 1810 460 q 1848 465 1837 465 q 1900 456 1871 465 q 1936 424 1928 446 q 1948 405 1938 421 q 1965 372 1955 392 q 1971 335 1971 356 q 1963 297 1971 316 q 1944 265 1955 280 q 1934 252 1940 259 q 1922 238 1928 245 q 1910 220 1910 223 q 1915 204 1910 215 q 1932 175 1919 194 q 1947 149 1939 162 q 1968 93 1968 109 q 1959 71 1968 86 q 1944 56 1949 56 q 1913 77 1933 56 q 1874 125 1890 102 q 1856 149 1871 129 q 1846 163 1851 158 q 1840 172 1842 168 q 1833 179 1835 179 q 1831 170 1831 179 l 1831 75 q 1827 61 1831 65 q 1815 56 1823 56 q 1777 69 1800 56 q 1762 80 1765 74 q 1757 101 1757 86 l 1757 101 m 1898 360 q 1869 388 1898 388 q 1835 364 1835 388 q 1833 273 1833 303 q 1837 267 1833 267 q 1856 284 1839 267 q 1885 322 1869 297 q 1898 360 1898 341 l 1898 360 m 2018 99 q 2017 103 2018 102 q 2029 147 2018 126 q 2056 167 2037 167 q 2074 160 2063 167 q 2093 140 2085 152 q 2101 109 2101 126 q 2089 71 2101 86 q 2058 55 2077 55 q 2018 99 2025 55 l 2018 99 m 2324 440 q 2326 450 2324 444 q 2332 455 2330 455 q 2390 443 2358 450 q 2406 402 2406 438 q 2404 347 2406 368 q 2401 301 2401 306 q 2400 297 2401 298 q 2403 291 2400 294 q 2409 302 2407 296 q 2434 368 2415 320 q 2464 438 2449 406 q 2484 475 2477 468 q 2489 478 2486 478 q 2507 462 2496 478 q 2520 450 2517 453 q 2538 429 2531 440 q 2521 386 2538 425 q 2505 345 2513 365 q 2490 307 2497 326 q 2472 248 2475 265 q 2490 202 2472 244 q 2518 142 2505 170 q 2528 109 2526 120 q 2520 87 2528 99 q 2499 65 2511 72 q 2459 102 2484 65 q 2417 173 2435 137 q 2412 183 2415 177 q 2408 193 2411 185 q 2404 197 2406 197 q 2402 185 2402 197 l 2402 120 q 2398 63 2402 80 q 2388 54 2395 54 q 2368 61 2384 54 q 2355 66 2364 63 q 2336 74 2344 69 q 2322 88 2328 77 q 2322 89 2322 88 q 2321 92 2322 90 q 2322 97 2324 100 q 2324 103 2322 99 q 2325 109 2324 105 q 2326 128 2325 115 q 2326 147 2326 137 q 2326 169 2326 158 q 2325 237 2326 198 q 2325 325 2325 276 q 2324 403 2324 374 q 2324 440 2324 432 l 2324 440 m 2649 217 l 2649 233 q 2644 267 2649 267 q 2625 245 2636 264 q 2620 236 2623 243 q 2612 223 2617 229 q 2606 219 2608 219 q 2579 222 2587 219 q 2567 238 2570 225 q 2568 240 2568 239 q 2568 241 2568 240 q 2568 242 2568 241 q 2598 314 2581 290 q 2625 335 2615 335 q 2662 326 2638 334 q 2699 305 2684 318 q 2714 253 2714 292 q 2712 96 2714 194 q 2713 92 2712 94 q 2713 87 2713 90 q 2714 79 2714 79 q 2710 59 2714 63 q 2698 55 2706 55 l 2671 55 q 2665 56 2668 55 q 2659 62 2664 57 q 2653 67 2648 70 q 2647 69 2651 69 q 2633 67 2641 69 q 2625 64 2628 65 q 2621 63 2622 63 q 2596 75 2609 63 q 2571 104 2582 85 q 2562 138 2562 122 q 2562 139 2562 138 q 2562 140 2562 139 q 2649 217 2563 200 l 2649 217 m 2648 118 l 2648 135 q 2649 156 2649 149 q 2620 148 2630 155 q 2610 130 2610 139 q 2615 118 2612 120 q 2627 113 2619 115 q 2648 118 2646 118 l 2648 118 m 2775 315 q 2782 330 2775 326 q 2796 335 2788 335 q 2831 325 2815 335 q 2848 297 2848 315 q 2845 193 2848 252 q 2842 92 2842 119 q 2836 63 2842 69 q 2815 55 2831 55 q 2788 63 2800 55 q 2776 82 2776 71 q 2776 117 2776 101 q 2776 145 2776 133 q 2776 170 2776 157 q 2776 199 2776 184 q 2775 257 2775 218 q 2775 286 2775 271 q 2775 315 2775 301 l 2775 315 m 2772 408 q 2781 440 2772 427 q 2807 455 2790 455 q 2826 448 2817 455 q 2840 429 2835 442 q 2846 402 2846 416 q 2838 368 2846 378 q 2812 357 2830 357 q 2787 362 2794 357 q 2775 377 2778 366 q 2772 408 2772 385 l 2772 408 m 2902 276 q 2906 299 2902 291 q 2922 307 2910 307 q 2934 305 2930 307 q 2942 303 2938 305 q 2946 297 2945 299 q 2949 293 2949 293 q 2958 305 2951 293 q 2973 323 2965 315 q 2987 333 2979 330 q 2996 334 2989 334 q 3012 328 3001 334 q 3029 320 3023 321 q 3036 316 3034 317 q 3047 311 3036 316 q 3054 302 3052 306 q 3061 286 3057 297 q 3064 217 3064 267 q 3059 77 3064 149 q 3041 63 3059 63 q 3011 70 3023 63 q 2998 93 2998 75 q 2998 104 2998 93 q 2998 134 2998 114 q 2999 174 2998 155 q 2999 212 2999 193 l 2999 250 q 2998 261 2999 255 q 2992 266 2995 266 q 2984 259 2987 266 q 2971 209 2973 240 q 2966 131 2966 172 q 2967 68 2967 81 q 2948 56 2967 56 q 2917 65 2931 56 q 2901 91 2901 74 q 2901 120 2901 100 q 2902 171 2901 140 q 2902 223 2902 202 q 2902 254 2902 244 l 2902 276 l 2902 276 m 3117 459 q 3149 478 3117 478 q 3158 474 3152 477 q 3166 468 3160 473 q 3171 463 3169 465 q 3173 462 3172 463 q 3177 460 3175 461 q 3182 455 3182 455 q 3187 448 3183 453 q 3188 438 3188 443 q 3186 391 3188 425 q 3184 332 3184 358 q 3187 313 3184 314 q 3198 322 3192 314 q 3208 332 3206 330 q 3217 335 3212 335 q 3247 320 3230 335 q 3258 313 3264 309 q 3264 307 3263 311 q 3276 275 3273 297 q 3280 219 3280 256 q 3280 196 3280 206 q 3280 178 3280 185 q 3280 162 3280 170 q 3280 145 3280 153 q 3280 127 3280 137 q 3280 103 3280 116 q 3275 67 3280 67 q 3264 65 3272 66 q 3257 63 3260 64 q 3252 62 3255 62 q 3246 62 3249 62 q 3242 61 3244 61 q 3226 69 3238 61 q 3213 84 3213 77 q 3212 90 3213 89 q 3213 94 3213 91 q 3213 115 3213 100 q 3214 155 3213 130 q 3216 225 3216 205 l 3216 242 q 3208 259 3216 259 q 3200 248 3203 259 q 3197 237 3198 242 q 3194 227 3195 231 q 3188 206 3192 219 q 3184 185 3186 200 q 3181 160 3181 162 l 3181 113 q 3181 89 3181 99 q 3181 75 3181 80 q 3162 55 3181 55 q 3151 56 3158 55 q 3139 63 3141 61 q 3127 68 3130 67 q 3118 105 3120 70 q 3117 132 3118 124 q 3119 240 3118 183 q 3119 295 3119 267 q 3120 350 3120 322 q 3119 383 3120 372 q 3118 426 3119 391 q 3117 459 3117 444 l 3117 459 m 3348 307 q 3374 334 3358 334 q 3402 325 3386 334 q 3418 320 3409 321 q 3432 318 3424 320 q 3458 283 3445 311 q 3474 201 3474 246 q 3474 198 3474 200 q 3474 194 3474 196 q 3474 190 3474 192 q 3474 188 3474 189 q 3434 68 3472 106 q 3423 60 3430 63 q 3406 55 3414 55 q 3371 65 3392 55 q 3337 86 3350 73 q 3319 168 3320 105 q 3327 242 3320 209 q 3348 307 3334 280 l 3348 307 l 3348 307 m 3381 134 q 3390 115 3381 118 q 3403 134 3398 117 q 3413 212 3413 166 q 3412 222 3413 216 q 3412 233 3412 227 q 3412 244 3412 240 q 3411 250 3411 248 q 3406 262 3411 262 q 3397 250 3400 262 q 3386 198 3392 236 q 3381 134 3381 160 l 3381 134 m 3529 228 q 3523 227 3531 229 q 3518 225 3521 227 q 3503 242 3506 228 q 3500 273 3500 252 q 3530 289 3500 286 l 3532 333 q 3538 412 3534 387 q 3548 444 3540 428 q 3569 468 3554 457 q 3597 478 3581 478 q 3614 470 3602 478 q 3636 453 3624 463 q 3651 435 3645 444 q 3657 412 3653 427 q 3660 377 3660 391 q 3658 351 3660 361 q 3653 341 3658 343 q 3640 337 3647 337 q 3629 335 3630 336 q 3618 339 3621 336 q 3614 349 3615 341 q 3611 367 3611 358 q 3607 383 3609 375 q 3602 388 3605 388 q 3599 385 3599 388 q 3597 375 3597 383 q 3596 345 3597 363 q 3597 310 3597 329 q 3608 301 3597 302 q 3620 299 3613 300 q 3627 298 3624 299 q 3634 297 3630 297 q 3641 260 3641 295 q 3608 235 3641 237 q 3601 232 3607 235 q 3597 225 3597 230 q 3598 181 3598 220 l 3598 75 q 3590 61 3598 65 q 3574 55 3584 55 q 3542 61 3554 55 q 3530 85 3530 66 l 3530 183 q 3530 194 3530 188 q 3529 208 3529 200 q 3529 221 3529 217 q 3529 228 3529 226 l 3529 228 m 3727 153 q 3725 145 3727 151 q 3724 135 3724 136 q 3727 122 3724 126 q 3737 113 3729 118 q 3748 118 3744 114 q 3754 124 3750 120 q 3764 134 3758 128 q 3778 145 3774 145 q 3789 142 3781 145 q 3803 133 3795 139 q 3809 120 3809 127 q 3797 92 3809 113 q 3773 65 3784 70 q 3740 55 3756 55 q 3699 70 3719 55 q 3670 105 3678 84 q 3661 165 3662 130 q 3666 225 3662 190 q 3716 335 3683 326 q 3726 332 3717 335 q 3740 328 3733 329 q 3774 320 3765 324 q 3789 305 3780 316 q 3805 273 3799 290 q 3813 195 3813 253 l 3813 178 q 3808 170 3813 172 q 3788 165 3805 168 q 3727 153 3762 161 l 3727 153 m 3756 217 l 3756 227 q 3752 257 3756 242 q 3746 270 3750 270 q 3734 247 3741 270 q 3726 206 3727 223 q 3726 204 3726 205 q 3726 202 3726 202 q 3727 198 3727 200 q 3746 204 3740 201 q 3756 217 3753 208 l 3756 217 m 3860 96 q 3859 122 3860 115 q 3860 191 3859 156 q 3860 261 3860 226 q 3858 290 3860 282 q 3885 307 3864 307 q 3894 305 3892 307 q 3901 301 3894 305 q 3909 315 3904 302 q 3912 325 3911 321 q 3914 331 3913 329 q 3923 335 3916 335 q 3965 320 3953 335 q 3976 303 3973 313 q 3978 273 3978 292 l 3978 253 q 3953 217 3978 221 q 3941 220 3942 219 q 3938 230 3941 218 q 3934 239 3937 233 q 3930 242 3932 242 q 3925 220 3926 240 q 3925 197 3925 212 q 3926 160 3925 182 q 3927 119 3926 136 q 3927 92 3927 102 l 3927 71 q 3913 55 3927 55 q 3885 59 3900 55 q 3865 70 3869 65 q 3860 96 3860 76 "},"ò":{"x_min":121.390625,"x_max":280.765625,"ha":294,"o":"m 200 700 q 257 676 233 700 q 280 620 280 653 q 257 563 280 587 q 200 540 233 540 q 144 563 168 540 q 121 620 121 587 q 144 676 121 653 q 200 700 168 700 l 200 700 m 200 325 q 257 301 233 325 q 280 245 280 278 q 257 189 280 212 q 200 166 233 166 q 144 189 168 166 q 121 245 121 212 q 144 301 121 278 q 200 325 168 325 "},"^":{"x_min":121.390625,"x_max":280.765625,"ha":294,"o":"m 200 700 q 257 676 233 700 q 280 620 280 653 q 257 563 280 587 q 200 540 233 540 q 144 563 168 540 q 121 620 121 587 q 144 676 121 653 q 200 700 168 700 l 200 700 m 200 325 q 257 301 233 325 q 280 245 280 278 q 257 189 280 212 q 200 166 233 166 q 144 189 168 166 q 121 245 121 212 q 144 301 121 278 q 200 325 168 325 "},"«":{"x_min":121.390625,"x_max":280.765625,"ha":294,"o":"m 200 700 q 257 676 233 700 q 280 620 280 653 q 257 563 280 587 q 200 540 233 540 q 144 563 168 540 q 121 620 121 587 q 144 676 121 653 q 200 700 168 700 l 200 700 m 200 325 q 257 301 233 325 q 280 245 280 278 q 257 189 280 212 q 200 166 233 166 q 144 189 168 166 q 121 245 121 212 q 144 301 121 278 q 200 325 168 325 "},"D":{"x_min":35.21875,"x_max":1306.34375,"ha":1377,"o":"m 748 695 q 751 658 751 680 q 711 583 751 614 q 614 552 670 552 q 517 583 557 552 q 476 658 476 614 q 491 705 476 681 q 285 647 390 686 q 122 560 181 607 q 368 436 244 461 q 620 416 491 411 q 840 484 748 420 q 1054 595 933 549 q 896 645 977 615 q 748 695 816 674 l 748 695 m 667 356 q 878 253 796 333 q 1087 141 960 172 q 1144 155 1112 135 q 1175 208 1176 175 q 1154 276 1173 263 q 1110 282 1136 288 q 1091 250 1093 278 q 1078 222 1089 222 q 1056 238 1062 222 q 1052 263 1051 253 q 1065 309 1054 288 q 1108 337 1076 331 q 1205 305 1178 351 q 1231 212 1232 259 q 1189 123 1229 166 q 1083 85 1150 80 q 838 190 941 94 q 598 325 734 286 q 629 207 600 259 q 642 109 657 155 q 607 71 635 84 q 554 58 579 58 q 508 72 536 58 q 467 122 480 86 q 440 353 425 238 q 230 425 333 369 q 35 564 127 481 q 75 596 29 569 q 118 630 120 623 q 73 679 112 644 q 46 723 34 714 q 303 892 179 826 q 595 963 427 958 q 912 908 754 966 q 1270 752 1070 849 q 1256 719 1277 748 q 1226 695 1236 691 q 878 835 1009 772 q 602 893 748 897 q 376 846 478 889 q 143 714 275 802 q 157 693 143 714 q 177 663 171 672 q 282 710 242 688 q 362 748 322 731 q 458 774 403 764 q 609 788 513 785 q 782 776 721 792 q 905 731 844 760 q 1052 662 966 702 q 1299 579 1137 623 q 1302 550 1311 575 q 1285 524 1293 524 q 1176 546 1236 520 q 1100 560 1116 573 q 904 433 1024 499 q 667 356 783 367 l 667 356 m 540 352 q 498 349 498 350 q 518 153 491 218 q 579 114 545 88 q 570 187 602 133 q 540 352 537 242 l 540 352 m 657 709 q 576 708 617 714 q 555 665 555 694 q 619 613 555 613 q 682 665 682 613 q 657 709 682 693 "},"ÿ":{"x_min":121.390625,"x_max":280.765625,"ha":294,"o":"m 200 700 q 257 676 233 700 q 280 620 280 653 q 257 563 280 587 q 200 540 233 540 q 144 563 168 540 q 121 620 121 587 q 144 676 121 653 q 200 700 168 700 l 200 700 m 200 325 q 257 301 233 325 q 280 245 280 278 q 257 189 280 212 q 200 166 233 166 q 144 189 168 166 q 121 245 121 212 q 144 301 121 278 q 200 325 168 325 "},"í":{"x_min":121.390625,"x_max":280.765625,"ha":294,"o":"m 200 700 q 257 676 233 700 q 280 620 280 653 q 257 563 280 587 q 200 540 233 540 q 144 563 168 540 q 121 620 121 587 q 144 676 121 653 q 200 700 168 700 l 200 700 m 200 325 q 257 301 233 325 q 280 245 280 278 q 257 189 280 212 q 200 166 233 166 q 144 189 168 166 q 121 245 121 212 q 144 301 121 278 q 200 325 168 325 "},"w":{"x_min":81.375,"x_max":828.046875,"ha":869,"o":"m 334 681 l 334 681 q 440 767 396 754 q 512 775 484 781 q 574 707 565 765 q 540 618 582 649 q 452 594 507 594 q 355 605 396 594 q 449 497 423 542 q 480 392 476 452 q 477 300 484 344 q 429 216 470 256 q 306 172 386 174 q 193 200 226 170 q 141 275 166 223 q 120 370 115 326 q 231 596 138 511 l 81 714 l 126 769 l 241 680 q 527 1143 254 1140 q 736 1034 649 1143 q 828 589 823 925 l 826 4 l 727 4 l 728 582 q 668 948 728 855 q 519 1042 608 1040 q 377 918 423 1044 q 334 681 330 793 m 299 559 l 299 559 q 227 478 245 506 q 204 407 209 450 q 220 306 198 364 q 293 252 242 248 q 380 281 343 257 q 404 380 417 305 q 368 483 390 461 q 299 559 346 505 m 368 646 q 499 646 452 632 q 521 667 513 650 q 527 701 529 685 q 506 720 524 713 q 476 723 487 727 q 368 646 428 710 "},"$":{"x_min":121.390625,"x_max":280.765625,"ha":294,"o":"m 200 700 q 257 676 233 700 q 280 620 280 653 q 257 563 280 587 q 200 540 233 540 q 144 563 168 540 q 121 620 121 587 q 144 676 121 653 q 200 700 168 700 l 200 700 m 200 325 q 257 301 233 325 q 280 245 280 278 q 257 189 280 212 q 200 166 233 166 q 144 189 168 166 q 121 245 121 212 q 144 301 121 278 q 200 325 168 325 "},"\\":{"x_min":121.390625,"x_max":280.765625,"ha":294,"o":"m 200 700 q 257 676 233 700 q 280 620 280 653 q 257 563 280 587 q 200 540 233 540 q 144 563 168 540 q 121 620 121 587 q 144 676 121 653 q 200 700 168 700 l 200 700 m 200 325 q 257 301 233 325 q 280 245 280 278 q 257 189 280 212 q 200 166 233 166 q 144 189 168 166 q 121 245 121 212 q 144 301 121 278 q 200 325 168 325 "},"":{"x_min":121.390625,"x_max":280.765625,"ha":294,"o":"m 200 700 q 257 676 233 700 q 280 620 280 653 q 257 563 280 587 q 200 540 233 540 q 144 563 168 540 q 121 620 121 587 q 144 676 121 653 q 200 700 168 700 l 200 700 m 200 325 q 257 301 233 325 q 280 245 280 278 q 257 189 280 212 q 200 166 233 166 q 144 189 168 166 q 121 245 121 212 q 144 301 121 278 q 200 325 168 325 "},"Ì":{"x_min":121.390625,"x_max":280.765625,"ha":294,"o":"m 200 700 q 257 676 233 700 q 280 620 280 653 q 257 563 280 587 q 200 540 233 540 q 144 563 168 540 q 121 620 121 587 q 144 676 121 653 q 200 700 168 700 l 200 700 m 200 325 q 257 301 233 325 q 280 245 280 278 q 257 189 280 212 q 200 166 233 166 q 144 189 168 166 q 121 245 121 212 q 144 301 121 278 q 200 325 168 325 "},"µ":{"x_min":121.390625,"x_max":280.765625,"ha":294,"o":"m 200 700 q 257 676 233 700 q 280 620 280 653 q 257 563 280 587 q 200 540 233 540 q 144 563 168 540 q 121 620 121 587 q 144 676 121 653 q 200 700 168 700 l 200 700 m 200 325 q 257 301 233 325 q 280 245 280 278 q 257 189 280 212 q 200 166 233 166 q 144 189 168 166 q 121 245 121 212 q 144 301 121 278 q 200 325 168 325 "},"Ç":{"x_min":121.390625,"x_max":280.765625,"ha":294,"o":"m 200 700 q 257 676 233 700 q 280 620 280 653 q 257 563 280 587 q 200 540 233 540 q 144 563 168 540 q 121 620 121 587 q 144 676 121 653 q 200 700 168 700 l 200 700 m 200 325 q 257 301 233 325 q 280 245 280 278 q 257 189 280 212 q 200 166 233 166 q 144 189 168 166 q 121 245 121 212 q 144 301 121 278 q 200 325 168 325 "},"":{"x_min":121.390625,"x_max":280.765625,"ha":294,"o":"m 200 700 q 257 676 233 700 q 280 620 280 653 q 257 563 280 587 q 200 540 233 540 q 144 563 168 540 q 121 620 121 587 q 144 676 121 653 q 200 700 168 700 l 200 700 m 200 325 q 257 301 233 325 q 280 245 280 278 q 257 189 280 212 q 200 166 233 166 q 144 189 168 166 q 121 245 121 212 q 144 301 121 278 q 200 325 168 325 "},"-":{"x_min":121.390625,"x_max":280.765625,"ha":294,"o":"m 200 700 q 257 676 233 700 q 280 620 280 653 q 257 563 280 587 q 200 540 233 540 q 144 563 168 540 q 121 620 121 587 q 144 676 121 653 q 200 700 168 700 l 200 700 m 200 325 q 257 301 233 325 q 280 245 280 278 q 257 189 280 212 q 200 166 233 166 q 144 189 168 166 q 121 245 121 212 q 144 301 121 278 q 200 325 168 325 "},"Q":{"x_min":3.390625,"x_max":836.859375,"ha":878,"o":"m 4 60 l 3 61 l 771 829 l 771 828 l 771 829 l 836 829 l 836 -3 l 836 -3 l 3 -3 l 3 60 l 4 60 l 4 60 m 739 78 l 739 643 l 166 78 l 739 78 "},"M":{"x_min":58.390625,"x_max":1019.859375,"ha":1076,"o":"m 124 1026 q 171 1048 158 1046 q 221 1032 185 1049 q 272 1053 265 1053 q 319 1022 280 1052 q 307 1001 315 1015 q 274 1023 278 1022 q 244 1001 270 1024 q 244 960 244 984 q 244 921 244 937 q 228 921 236 921 q 211 921 219 921 q 211 964 211 939 q 211 1007 211 988 q 170 1021 183 1026 q 130 998 158 1017 q 127 1012 128 1005 q 124 1026 125 1019 l 124 1026 m 136 1092 q 101 1024 115 1051 q 94 968 86 996 q 171 867 107 919 q 241 847 207 837 q 301 887 276 857 q 342 930 323 912 q 370 991 360 947 q 361 1043 375 1013 q 347 1095 347 1072 q 238 1074 290 1076 q 136 1092 187 1072 l 136 1092 m 270 458 q 299 412 286 432 q 328 367 312 391 q 344 300 337 326 q 356 227 351 274 q 401 212 379 221 q 445 198 423 204 q 423 281 436 237 q 402 366 411 326 q 336 412 364 390 q 270 458 308 434 l 270 458 m 330 52 q 413 51 372 52 q 497 50 455 50 q 508 128 502 89 q 520 206 514 167 q 484 259 497 245 q 448 311 470 272 q 469 214 457 266 q 478 156 482 162 q 433 159 472 150 q 366 179 394 168 q 348 115 353 145 q 330 52 343 86 l 330 52 m 141 832 q 91 893 120 866 q 59 960 61 919 q 77 1045 54 1004 q 115 1129 101 1087 q 237 1114 164 1112 q 378 1132 310 1116 q 402 1052 384 1095 q 412 973 420 1010 q 378 908 404 935 q 331 849 353 882 q 490 772 418 833 q 626 628 562 710 q 751 455 691 545 q 876 292 811 364 q 967 212 910 255 q 1019 161 1025 169 q 978 183 1017 158 q 914 229 939 208 q 964 139 939 184 q 1015 48 990 93 q 933 28 975 38 q 851 8 892 18 q 739 159 795 84 q 627 311 683 235 q 635 213 635 229 q 653 178 634 197 q 647 167 656 174 q 639 154 638 160 q 595 180 623 164 q 551 196 567 196 q 542 97 544 153 q 530 25 540 41 q 468 19 524 21 q 348 16 413 16 q 228 17 283 15 q 166 23 172 18 q 170 44 170 44 q 226 47 181 52 q 287 44 271 42 q 308 99 299 54 q 328 177 318 144 q 312 263 320 220 q 297 348 305 305 q 207 513 243 452 q 153 620 172 574 q 131 713 134 667 q 141 832 128 758 l 141 832 m 657 325 q 764 190 712 250 q 872 56 815 130 q 916 67 899 64 q 960 79 933 70 q 918 161 936 122 q 877 243 901 200 q 767 284 817 265 q 657 325 716 302 l 657 325 m 617 341 q 517 379 567 360 q 420 423 466 399 q 325 492 363 453 q 248 577 286 530 q 217 649 229 609 q 197 725 205 689 q 273 752 231 741 q 349 779 314 762 q 364 756 354 771 q 291 729 329 739 q 236 715 252 719 q 301 578 252 646 q 409 473 349 509 q 617 377 513 410 q 833 295 721 344 q 680 488 738 405 q 571 634 623 571 q 458 744 519 697 q 295 829 396 791 q 269 816 276 818 q 242 811 262 815 q 212 813 219 807 q 183 821 206 818 q 186 671 170 728 q 249 513 202 614 q 338 453 295 482 q 428 394 381 423 q 488 313 457 352 q 550 233 520 274 q 580 220 566 225 q 613 203 594 216 q 604 270 599 238 q 609 340 609 303 q 613 340 611 340 q 617 341 615 341 "},"C":{"x_min":40.6875,"x_max":790.0625,"ha":829,"o":"m 219 698 l 219 698 l 149 828 l 663 828 l 594 705 q 734 566 678 657 q 790 377 790 476 q 678 113 790 222 q 413 4 566 4 q 149 113 259 4 q 40 377 40 222 q 87 562 40 476 q 219 698 133 649 m 328 665 q 177 545 228 627 q 126 386 126 463 q 210 183 126 267 q 413 99 295 99 q 618 183 531 99 q 704 386 704 267 q 646 551 704 463 q 484 672 588 639 l 528 749 l 284 749 l 328 665 "},"!":{"x_min":121.390625,"x_max":280.765625,"ha":294,"o":"m 200 700 q 257 676 233 700 q 280 620 280 653 q 257 563 280 587 q 200 540 233 540 q 144 563 168 540 q 121 620 121 587 q 144 676 121 653 q 200 700 168 700 l 200 700 m 200 325 q 257 301 233 325 q 280 245 280 278 q 257 189 280 212 q 200 166 233 166 q 144 189 168 166 q 121 245 121 212 q 144 301 121 278 q 200 325 168 325 "},"ç":{"x_min":121.390625,"x_max":280.765625,"ha":294,"o":"m 200 700 q 257 676 233 700 q 280 620 280 653 q 257 563 280 587 q 200 540 233 540 q 144 563 168 540 q 121 620 121 587 q 144 676 121 653 q 200 700 168 700 l 200 700 m 200 325 q 257 301 233 325 q 280 245 280 278 q 257 189 280 212 q 200 166 233 166 q 144 189 168 166 q 121 245 121 212 q 144 301 121 278 q 200 325 168 325 "},"È":{"x_min":121.390625,"x_max":280.765625,"ha":294,"o":"m 200 700 q 257 676 233 700 q 280 620 280 653 q 257 563 280 587 q 200 540 233 540 q 144 563 168 540 q 121 620 121 587 q 144 676 121 653 q 200 700 168 700 l 200 700 m 200 325 q 257 301 233 325 q 280 245 280 278 q 257 189 280 212 q 200 166 233 166 q 144 189 168 166 q 121 245 121 212 q 144 301 121 278 q 200 325 168 325 "},"{":{"x_min":121.390625,"x_max":280.765625,"ha":294,"o":"m 200 700 q 257 676 233 700 q 280 620 280 653 q 257 563 280 587 q 200 540 233 540 q 144 563 168 540 q 121 620 121 587 q 144 676 121 653 q 200 700 168 700 l 200 700 m 200 325 q 257 301 233 325 q 280 245 280 278 q 257 189 280 212 q 200 166 233 166 q 144 189 168 166 q 121 245 121 212 q 144 301 121 278 q 200 325 168 325 "},"X":{"x_min":121.390625,"x_max":280.765625,"ha":294,"o":"m 200 700 q 257 676 233 700 q 280 620 280 653 q 257 563 280 587 q 200 540 233 540 q 144 563 168 540 q 121 620 121 587 q 144 676 121 653 q 200 700 168 700 l 200 700 m 200 325 q 257 301 233 325 q 280 245 280 278 q 257 189 280 212 q 200 166 233 166 q 144 189 168 166 q 121 245 121 212 q 144 301 121 278 q 200 325 168 325 "},"ô":{"x_min":121.390625,"x_max":280.765625,"ha":294,"o":"m 200 700 q 257 676 233 700 q 280 620 280 653 q 257 563 280 587 q 200 540 233 540 q 144 563 168 540 q 121 620 121 587 q 144 676 121 653 q 200 700 168 700 l 200 700 m 200 325 q 257 301 233 325 q 280 245 280 278 q 257 189 280 212 q 200 166 233 166 q 144 189 168 166 q 121 245 121 212 q 144 301 121 278 q 200 325 168 325 "},"¼":{"x_min":121.390625,"x_max":280.765625,"ha":294,"o":"m 200 700 q 257 676 233 700 q 280 620 280 653 q 257 563 280 587 q 200 540 233 540 q 144 563 168 540 q 121 620 121 587 q 144 676 121 653 q 200 700 168 700 l 200 700 m 200 325 q 257 301 233 325 q 280 245 280 278 q 257 189 280 212 q 200 166 233 166 q 144 189 168 166 q 121 245 121 212 q 144 301 121 278 q 200 325 168 325 "},"#":{"x_min":121.390625,"x_max":280.765625,"ha":294,"o":"m 200 700 q 257 676 233 700 q 280 620 280 653 q 257 563 280 587 q 200 540 233 540 q 144 563 168 540 q 121 620 121 587 q 144 676 121 653 q 200 700 168 700 l 200 700 m 200 325 q 257 301 233 325 q 280 245 280 278 q 257 189 280 212 q 200 166 233 166 q 144 189 168 166 q 121 245 121 212 q 144 301 121 278 q 200 325 168 325 "},"":{"x_min":121.390625,"x_max":280.765625,"ha":294,"o":"m 200 700 q 257 676 233 700 q 280 620 280 653 q 257 563 280 587 q 200 540 233 540 q 144 563 168 540 q 121 620 121 587 q 144 676 121 653 q 200 700 168 700 l 200 700 m 200 325 q 257 301 233 325 q 280 245 280 278 q 257 189 280 212 q 200 166 233 166 q 144 189 168 166 q 121 245 121 212 q 144 301 121 278 q 200 325 168 325 "},"Ê":{"x_min":121.390625,"x_max":280.765625,"ha":294,"o":"m 200 700 q 257 676 233 700 q 280 620 280 653 q 257 563 280 587 q 200 540 233 540 q 144 563 168 540 q 121 620 121 587 q 144 676 121 653 q 200 700 168 700 l 200 700 m 200 325 q 257 301 233 325 q 280 245 280 278 q 257 189 280 212 q 200 166 233 166 q 144 189 168 166 q 121 245 121 212 q 144 301 121 278 q 200 325 168 325 "},")":{"x_min":121.390625,"x_max":280.765625,"ha":294,"o":"m 200 700 q 257 676 233 700 q 280 620 280 653 q 257 563 280 587 q 200 540 233 540 q 144 563 168 540 q 121 620 121 587 q 144 676 121 653 q 200 700 168 700 l 200 700 m 200 325 q 257 301 233 325 q 280 245 280 278 q 257 189 280 212 q 200 166 233 166 q 144 189 168 166 q 121 245 121 212 q 144 301 121 278 q 200 325 168 325 "},"Å":{"x_min":121.390625,"x_max":280.765625,"ha":294,"o":"m 200 700 q 257 676 233 700 q 280 620 280 653 q 257 563 280 587 q 200 540 233 540 q 144 563 168 540 q 121 620 121 587 q 144 676 121 653 q 200 700 168 700 l 200 700 m 200 325 q 257 301 233 325 q 280 245 280 278 q 257 189 280 212 q 200 166 233 166 q 144 189 168 166 q 121 245 121 212 q 144 301 121 278 q 200 325 168 325 "},"ø":{"x_min":121.390625,"x_max":280.765625,"ha":294,"o":"m 200 700 q 257 676 233 700 q 280 620 280 653 q 257 563 280 587 q 200 540 233 540 q 144 563 168 540 q 121 620 121 587 q 144 676 121 653 q 200 700 168 700 l 200 700 m 200 325 q 257 301 233 325 q 280 245 280 278 q 257 189 280 212 q 200 166 233 166 q 144 189 168 166 q 121 245 121 212 q 144 301 121 278 q 200 325 168 325 "},"â":{"x_min":121.390625,"x_max":280.765625,"ha":294,"o":"m 200 700 q 257 676 233 700 q 280 620 280 653 q 257 563 280 587 q 200 540 233 540 q 144 563 168 540 q 121 620 121 587 q 144 676 121 653 q 200 700 168 700 l 200 700 m 200 325 q 257 301 233 325 q 280 245 280 278 q 257 189 280 212 q 200 166 233 166 q 144 189 168 166 q 121 245 121 212 q 144 301 121 278 q 200 325 168 325 "},"}":{"x_min":121.390625,"x_max":280.765625,"ha":294,"o":"m 200 700 q 257 676 233 700 q 280 620 280 653 q 257 563 280 587 q 200 540 233 540 q 144 563 168 540 q 121 620 121 587 q 144 676 121 653 q 200 700 168 700 l 200 700 m 200 325 q 257 301 233 325 q 280 245 280 278 q 257 189 280 212 q 200 166 233 166 q 144 189 168 166 q 121 245 121 212 q 144 301 121 278 q 200 325 168 325 "},"Ä":{"x_min":121.390625,"x_max":280.765625,"ha":294,"o":"m 200 700 q 257 676 233 700 q 280 620 280 653 q 257 563 280 587 q 200 540 233 540 q 144 563 168 540 q 121 620 121 587 q 144 676 121 653 q 200 700 168 700 l 200 700 m 200 325 q 257 301 233 325 q 280 245 280 278 q 257 189 280 212 q 200 166 233 166 q 144 189 168 166 q 121 245 121 212 q 144 301 121 278 q 200 325 168 325 "},"¸":{"x_min":121.390625,"x_max":280.765625,"ha":294,"o":"m 200 700 q 257 676 233 700 q 280 620 280 653 q 257 563 280 587 q 200 540 233 540 q 144 563 168 540 q 121 620 121 587 q 144 676 121 653 q 200 700 168 700 l 200 700 m 200 325 q 257 301 233 325 q 280 245 280 278 q 257 189 280 212 q 200 166 233 166 q 144 189 168 166 q 121 245 121 212 q 144 301 121 278 q 200 325 168 325 "},"a":{"x_min":56.046875,"x_max":716.828125,"ha":752,"o":"m 644 30 q 551 18 636 23 q 365 11 465 13 q 182 9 265 8 q 99 16 100 10 q 114 94 92 61 q 162 163 136 128 q 83 295 132 229 q 75 406 33 360 q 194 392 117 454 q 338 305 272 330 q 305 524 323 405 q 273 743 287 644 q 191 656 228 712 q 138 611 154 600 q 113 620 132 613 q 92 642 94 627 q 116 758 87 674 q 162 855 145 842 q 202 882 184 871 q 251 908 219 894 q 258 1038 231 972 q 316 1095 273 1077 q 400 1118 358 1112 q 469 1095 433 1123 q 492 1005 505 1068 q 441 927 482 952 q 371 884 400 902 l 374 855 q 461 856 414 854 q 535 847 509 859 q 613 751 558 830 q 716 555 668 671 q 709 457 716 520 q 692 331 701 394 q 678 221 684 269 q 676 169 672 173 q 677 95 691 150 q 659 42 663 40 q 638 113 647 46 q 621 195 629 180 q 641 400 626 282 q 649 535 655 519 q 608 632 644 564 q 518 792 573 700 q 524 563 524 632 q 531 335 524 493 q 598 169 555 290 q 644 30 640 49 l 644 30 m 393 1068 q 338 1046 363 1068 q 301 997 313 1024 q 291 944 289 969 q 322 912 294 918 q 375 926 347 906 q 417 968 404 945 q 431 1031 432 995 q 393 1068 429 1067 l 393 1068 m 123 375 q 166 289 117 354 q 217 212 215 225 q 265 241 248 227 q 297 264 282 255 q 202 330 277 270 q 123 375 128 390 l 123 375 m 183 76 q 245 69 187 72 q 371 66 303 67 q 499 68 440 66 q 562 76 557 70 q 526 182 560 103 q 470 299 492 261 q 468 552 465 465 q 468 806 472 639 q 421 810 425 807 q 374 813 416 812 q 337 804 356 808 q 314 784 319 800 q 355 537 335 658 q 396 290 375 416 q 250 163 338 229 q 183 76 163 97 l 183 76 m 278 891 q 270 874 278 884 q 258 859 262 863 q 247 856 254 855 q 234 855 240 857 q 219 852 214 848 q 206 842 223 857 q 163 756 195 834 q 140 674 130 678 q 194 728 147 670 q 276 822 241 786 q 305 836 286 832 q 333 850 324 840 l 328 876 q 302 883 316 883 q 278 891 288 883 "},"=":{"x_min":121.390625,"x_max":280.765625,"ha":294,"o":"m 200 700 q 257 676 233 700 q 280 620 280 653 q 257 563 280 587 q 200 540 233 540 q 144 563 168 540 q 121 620 121 587 q 144 676 121 653 q 200 700 168 700 l 200 700 m 200 325 q 257 301 233 325 q 280 245 280 278 q 257 189 280 212 q 200 166 233 166 q 144 189 168 166 q 121 245 121 212 q 144 301 121 278 q 200 325 168 325 "},"N":{"x_min":85.453125,"x_max":1486.546875,"ha":1560,"o":"m 85 621 l 262 823 l 442 623 l 615 823 l 798 623 l 969 823 l 1148 623 l 1322 823 l 1486 623 l 1486 476 l 1322 677 l 1148 476 l 969 677 l 798 476 l 615 677 l 442 476 l 262 677 l 86 476 l 85 621 l 85 621 m 85 163 l 262 366 l 442 165 l 615 366 l 798 165 l 969 366 l 1148 165 l 1322 366 l 1486 165 l 1486 18 l 1322 219 l 1148 18 l 969 219 l 798 18 l 615 219 l 442 18 l 262 219 l 86 18 l 85 163 "},"ú":{"x_min":121.390625,"x_max":280.765625,"ha":294,"o":"m 200 700 q 257 676 233 700 q 280 620 280 653 q 257 563 280 587 q 200 540 233 540 q 144 563 168 540 q 121 620 121 587 q 144 676 121 653 q 200 700 168 700 l 200 700 m 200 325 q 257 301 233 325 q 280 245 280 278 q 257 189 280 212 q 200 166 233 166 q 144 189 168 166 q 121 245 121 212 q 144 301 121 278 q 200 325 168 325 "},"2":{"x_min":121.390625,"x_max":280.765625,"ha":294,"o":"m 200 700 q 257 676 233 700 q 280 620 280 653 q 257 563 280 587 q 200 540 233 540 q 144 563 168 540 q 121 620 121 587 q 144 676 121 653 q 200 700 168 700 l 200 700 m 200 325 q 257 301 233 325 q 280 245 280 278 q 257 189 280 212 q 200 166 233 166 q 144 189 168 166 q 121 245 121 212 q 144 301 121 278 q 200 325 168 325 "},"ü":{"x_min":121.390625,"x_max":280.765625,"ha":294,"o":"m 200 700 q 257 676 233 700 q 280 620 280 653 q 257 563 280 587 q 200 540 233 540 q 144 563 168 540 q 121 620 121 587 q 144 676 121 653 q 200 700 168 700 l 200 700 m 200 325 q 257 301 233 325 q 280 245 280 278 q 257 189 280 212 q 200 166 233 166 q 144 189 168 166 q 121 245 121 212 q 144 301 121 278 q 200 325 168 325 "},"¯":{"x_min":121.390625,"x_max":280.765625,"ha":294,"o":"m 200 700 q 257 676 233 700 q 280 620 280 653 q 257 563 280 587 q 200 540 233 540 q 144 563 168 540 q 121 620 121 587 q 144 676 121 653 q 200 700 168 700 l 200 700 m 200 325 q 257 301 233 325 q 280 245 280 278 q 257 189 280 212 q 200 166 233 166 q 144 189 168 166 q 121 245 121 212 q 144 301 121 278 q 200 325 168 325 "},"Z":{"x_min":0,"x_max":1295.984375,"ha":1360,"o":"m 59 203 l 59 203 l 59 45 l 1236 45 l 1236 203 l 59 203 m 162 1015 l 162 1015 q 218 1023 189 1015 q 246 1047 246 1030 q 160 1083 246 1083 q 106 1073 132 1082 q 81 1047 81 1065 q 107 1019 81 1024 q 162 1015 133 1015 m 648 1015 l 648 1015 q 704 1023 675 1015 q 733 1047 733 1030 q 646 1083 733 1083 q 592 1073 617 1082 q 567 1047 567 1065 q 593 1019 567 1024 q 648 1015 619 1015 m 1163 983 l 1163 983 l 1163 259 l 1295 259 l 1295 -6 l 0 -6 l 0 259 l 132 259 l 132 983 q 55 998 91 984 q 19 1055 19 1012 q 66 1099 19 1083 q 158 1116 113 1114 q 248 1103 195 1116 q 300 1047 300 1089 q 264 1003 300 1019 q 188 981 227 987 l 188 259 l 365 259 l 366 440 q 307 525 307 474 q 340 619 307 554 q 400 684 374 684 q 455 619 422 684 q 488 524 488 553 q 421 439 488 474 l 421 259 l 619 259 l 619 983 q 542 998 578 984 q 505 1055 505 1012 q 553 1099 505 1083 q 644 1116 600 1114 q 734 1103 682 1116 q 786 1047 786 1089 q 750 1004 786 1019 q 675 983 714 988 l 675 259 l 871 259 l 871 440 q 824 485 837 460 q 812 526 812 509 q 843 620 812 555 q 898 685 874 685 q 957 620 920 685 q 993 525 993 554 q 927 440 993 476 l 927 259 l 1106 259 l 1106 983 q 1029 998 1066 984 q 992 1055 992 1012 q 1039 1099 992 1083 q 1130 1116 1086 1114 q 1220 1103 1168 1116 q 1272 1047 1272 1089 q 1237 1004 1272 1019 q 1163 983 1202 988 m 1133 1015 l 1133 1015 q 1190 1023 1161 1015 q 1219 1047 1219 1030 q 1132 1083 1219 1083 q 1078 1073 1104 1082 q 1053 1047 1053 1065 q 1079 1019 1053 1024 q 1133 1015 1105 1015 m 398 627 l 398 627 q 377 583 394 627 q 360 519 360 539 q 371 499 360 511 q 396 486 382 486 q 420 500 408 486 q 432 521 432 513 q 417 580 432 533 q 398 627 402 627 m 903 627 q 881 583 898 627 q 864 519 864 539 q 875 499 864 511 q 900 486 887 486 q 924 500 912 486 q 936 521 936 513 q 921 580 936 533 q 903 627 907 627 "},"u":{"x_min":43.671875,"x_max":925.703125,"ha":979,"o":"m 118 813 l 118 813 q 226 738 185 770 q 374 678 268 705 q 528 664 449 659 q 673 691 608 670 q 783 749 750 715 q 870 828 817 783 l 925 738 q 808 669 867 689 q 701 619 750 648 q 773 632 765 634 q 823 635 781 631 q 864 609 849 637 q 846 544 878 581 q 808 527 834 530 q 720 520 782 524 q 853 358 773 455 q 897 169 933 260 q 824 64 878 122 q 720 11 771 6 q 534 46 637 19 q 350 86 432 72 q 238 60 313 92 q 126 27 163 27 q 76 49 112 27 q 44 86 40 72 q 154 347 77 210 q 288 607 232 484 q 165 659 210 626 q 59 754 120 692 l 118 813 m 382 579 l 382 579 q 264 353 329 458 q 138 130 199 248 q 141 125 142 126 q 150 114 140 124 q 231 155 185 144 q 311 165 278 167 q 512 121 426 158 q 712 106 598 84 q 775 143 773 117 q 788 201 777 169 q 788 241 793 219 q 775 280 782 263 q 705 396 747 347 q 630 548 663 444 q 696 569 622 570 q 803 583 771 568 q 719 587 779 586 q 665 592 659 587 q 539 572 615 577 q 382 579 463 567 m 407 469 q 457 412 457 469 q 407 354 457 354 q 358 412 358 354 q 407 469 358 469 "},"Ó":{"x_min":121.390625,"x_max":280.765625,"ha":294,"o":"m 200 700 q 257 676 233 700 q 280 620 280 653 q 257 563 280 587 q 200 540 233 540 q 144 563 168 540 q 121 620 121 587 q 144 676 121 653 q 200 700 168 700 l 200 700 m 200 325 q 257 301 233 325 q 280 245 280 278 q 257 189 280 212 q 200 166 233 166 q 144 189 168 166 q 121 245 121 212 q 144 301 121 278 q 200 325 168 325 "},"k":{"x_min":24.421875,"x_max":1175.265625,"ha":1234,"o":"m 24 936 q 56 958 38 956 q 151 994 75 960 q 212 1049 179 1015 q 280 1085 245 1084 q 348 1072 318 1085 q 388 996 378 1059 q 357 859 400 919 q 267 718 314 798 q 386 727 331 714 q 502 718 441 740 q 752 585 633 668 q 994 436 871 503 q 1068 423 1031 429 q 1142 410 1105 417 q 1055 399 1099 404 q 969 388 1011 394 q 1071 364 1019 376 q 1175 341 1123 353 q 1037 287 1106 314 q 900 233 969 260 q 915 109 906 181 q 922 23 924 37 q 840 7 914 10 q 704 8 765 4 q 696 23 696 8 q 704 41 697 38 q 777 61 746 56 q 853 73 809 65 q 838 145 846 113 q 824 218 831 178 q 685 250 755 232 q 547 284 616 269 q 524 130 537 220 q 507 37 512 40 q 431 30 502 32 q 303 37 360 28 q 297 54 295 38 q 307 73 299 71 q 379 84 349 85 q 453 88 409 84 q 470 187 461 140 q 488 287 479 234 q 281 445 397 364 q 183 645 166 527 q 226 755 198 741 q 314 874 255 769 q 122 922 152 915 q 24 936 92 930 l 24 936 m 273 1016 q 296 986 296 1016 q 271 960 296 960 q 249 972 254 960 q 244 990 244 983 q 273 1016 244 1016 l 273 1016 m 249 667 q 238 631 240 666 q 253 577 237 596 q 378 445 318 496 q 532 341 438 395 q 686 291 602 301 q 850 261 770 282 q 932 294 891 278 q 1016 327 974 311 q 984 334 1000 330 q 951 341 967 337 q 842 334 897 341 q 738 341 788 326 q 621 377 688 356 q 494 420 554 398 q 393 462 434 442 q 356 495 352 482 q 409 517 364 533 q 475 528 455 501 q 464 563 486 544 q 432 600 442 582 q 499 556 459 582 q 551 499 538 529 q 510 488 556 485 q 457 477 463 491 q 489 455 453 469 q 578 424 526 440 q 681 397 629 409 q 762 381 734 384 q 845 389 811 375 q 922 410 878 402 q 704 549 811 474 q 478 667 598 623 q 364 679 419 688 q 249 667 309 670 l 249 667 m 122 952 q 241 936 162 949 q 337 915 321 923 q 348 957 345 931 q 351 996 351 984 q 323 1035 348 1020 q 273 1045 298 1049 q 213 997 234 1038 q 122 952 192 956 "},"Ù":{"x_min":121.390625,"x_max":280.765625,"ha":294,"o":"m 200 700 q 257 676 233 700 q 280 620 280 653 q 257 563 280 587 q 200 540 233 540 q 144 563 168 540 q 121 620 121 587 q 144 676 121 653 q 200 700 168 700 l 200 700 m 200 325 q 257 301 233 325 q 280 245 280 278 q 257 189 280 212 q 200 166 233 166 q 144 189 168 166 q 121 245 121 212 q 144 301 121 278 q 200 325 168 325 "},"¢":{"x_min":121.390625,"x_max":280.765625,"ha":294,"o":"m 200 700 q 257 676 233 700 q 280 620 280 653 q 257 563 280 587 q 200 540 233 540 q 144 563 168 540 q 121 620 121 587 q 144 676 121 653 q 200 700 168 700 l 200 700 m 200 325 q 257 301 233 325 q 280 245 280 278 q 257 189 280 212 q 200 166 233 166 q 144 189 168 166 q 121 245 121 212 q 144 301 121 278 q 200 325 168 325 "},"ß":{"x_min":121.390625,"x_max":280.765625,"ha":294,"o":"m 200 700 q 257 676 233 700 q 280 620 280 653 q 257 563 280 587 q 200 540 233 540 q 144 563 168 540 q 121 620 121 587 q 144 676 121 653 q 200 700 168 700 l 200 700 m 200 325 q 257 301 233 325 q 280 245 280 278 q 257 189 280 212 q 200 166 233 166 q 144 189 168 166 q 121 245 121 212 q 144 301 121 278 q 200 325 168 325 "},"é":{"x_min":121.390625,"x_max":280.765625,"ha":294,"o":"m 200 700 q 257 676 233 700 q 280 620 280 653 q 257 563 280 587 q 200 540 233 540 q 144 563 168 540 q 121 620 121 587 q 144 676 121 653 q 200 700 168 700 l 200 700 m 200 325 q 257 301 233 325 q 280 245 280 278 q 257 189 280 212 q 200 166 233 166 q 144 189 168 166 q 121 245 121 212 q 144 301 121 278 q 200 325 168 325 "},"":{"x_min":121.390625,"x_max":280.765625,"ha":294,"o":"m 200 700 q 257 676 233 700 q 280 620 280 653 q 257 563 280 587 q 200 540 233 540 q 144 563 168 540 q 121 620 121 587 q 144 676 121 653 q 200 700 168 700 l 200 700 m 200 325 q 257 301 233 325 q 280 245 280 278 q 257 189 280 212 q 200 166 233 166 q 144 189 168 166 q 121 245 121 212 q 144 301 121 278 q 200 325 168 325 "},"":{"x_min":121.390625,"x_max":280.765625,"ha":294,"o":"m 200 700 q 257 676 233 700 q 280 620 280 653 q 257 563 280 587 q 200 540 233 540 q 144 563 168 540 q 121 620 121 587 q 144 676 121 653 q 200 700 168 700 l 200 700 m 200 325 q 257 301 233 325 q 280 245 280 278 q 257 189 280 212 q 200 166 233 166 q 144 189 168 166 q 121 245 121 212 q 144 301 121 278 q 200 325 168 325 "},"s":{"x_min":0,"x_max":834.140625,"ha":876,"o":"m 161 663 l 161 829 l 227 829 l 227 663 l 592 663 l 592 829 l 657 829 l 657 663 l 834 663 l 834 597 l 657 597 l 657 220 l 834 220 l 834 155 l 657 155 l 657 -3 l 592 -3 l 592 155 l 227 155 l 227 -3 l 161 -3 l 161 155 l 0 155 l 0 220 l 161 220 l 161 597 l 0 597 l 0 663 l 161 663 l 161 663 m 227 597 l 227 220 l 592 220 l 592 597 l 227 597 "},"B":{"x_min":25.09375,"x_max":1391.03125,"ha":1461,"o":"m 263 1017 q 277 1005 271 1017 q 291 992 282 992 q 302 1005 299 992 q 313 1017 305 1017 q 424 1018 368 1022 q 537 1014 480 1014 q 526 977 533 1002 q 426 977 476 977 q 328 977 377 977 q 568 864 413 895 q 878 828 723 834 q 1154 828 1033 822 q 1293 825 1275 834 q 1369 691 1363 788 q 1390 497 1376 593 q 1377 490 1392 489 q 1358 497 1361 491 q 1339 633 1323 566 q 1298 735 1355 699 q 1264 584 1284 659 q 1230 434 1243 509 q 1285 359 1255 396 q 1331 278 1315 322 q 1352 204 1348 233 q 1342 128 1357 174 q 1295 65 1330 91 q 1224 27 1260 40 q 1201 43 1209 22 q 1198 77 1192 65 q 1245 114 1210 103 q 1285 153 1280 125 q 1283 227 1292 200 q 1255 297 1274 254 q 1217 353 1243 325 q 1172 405 1192 381 q 1116 206 1148 301 q 998 38 1085 111 q 970 46 988 30 q 959 71 951 61 q 1069 245 1036 162 q 1111 431 1101 329 q 759 425 870 441 q 497 420 649 409 q 528 268 509 345 q 544 117 548 192 q 500 78 544 111 q 421 33 456 46 q 407 46 412 30 q 407 70 402 61 q 451 109 419 92 q 483 140 483 126 q 452 283 482 212 q 404 423 423 354 q 328 289 356 350 q 243 164 301 228 q 181 120 225 143 q 111 101 137 97 q 97 119 100 102 q 100 145 94 135 q 148 172 113 162 q 196 202 184 183 q 253 319 236 260 q 302 442 270 378 q 286 474 295 459 q 276 508 278 490 q 260 641 265 573 q 248 775 254 708 q 158 741 209 762 q 93 724 107 720 q 63 769 80 728 q 46 832 45 810 q 124 890 47 847 q 248 977 201 934 q 136 976 192 977 q 25 974 80 975 q 25 988 25 981 q 25 1003 25 995 q 143 1013 84 1007 q 263 1017 203 1019 l 263 1017 m 302 739 q 309 613 309 678 q 331 491 309 549 q 356 470 337 473 q 392 460 374 467 q 412 617 377 539 q 557 740 447 695 q 572 725 571 745 q 562 694 573 704 q 464 587 488 632 q 448 470 440 542 q 748 473 603 458 q 1097 470 893 487 q 1066 521 1089 495 q 1047 553 1044 547 q 1086 529 1053 561 q 1136 474 1118 497 q 1161 472 1150 473 q 1185 470 1171 471 q 1214 649 1196 544 q 1223 770 1232 754 q 1094 771 1220 774 q 807 778 968 767 q 496 827 646 790 q 292 950 345 864 q 166 880 248 920 q 85 835 83 840 q 103 798 88 823 q 129 767 118 773 q 201 790 140 762 q 277 813 263 817 q 297 777 289 784 q 302 739 304 771 l 302 739 m 265 883 q 288 860 288 883 q 262 840 288 840 q 240 860 240 840 q 265 883 240 883 "},"":{"x_min":121.390625,"x_max":280.765625,"ha":294,"o":"m 200 700 q 257 676 233 700 q 280 620 280 653 q 257 563 280 587 q 200 540 233 540 q 144 563 168 540 q 121 620 121 587 q 144 676 121 653 q 200 700 168 700 l 200 700 m 200 325 q 257 301 233 325 q 280 245 280 278 q 257 189 280 212 q 200 166 233 166 q 144 189 168 166 q 121 245 121 212 q 144 301 121 278 q 200 325 168 325 "},"?":{"x_min":121.390625,"x_max":280.765625,"ha":294,"o":"m 200 700 q 257 676 233 700 q 280 620 280 653 q 257 563 280 587 q 200 540 233 540 q 144 563 168 540 q 121 620 121 587 q 144 676 121 653 q 200 700 168 700 l 200 700 m 200 325 q 257 301 233 325 q 280 245 280 278 q 257 189 280 212 q 200 166 233 166 q 144 189 168 166 q 121 245 121 212 q 144 301 121 278 q 200 325 168 325 "},"H":{"x_min":121.390625,"x_max":280.765625,"ha":294,"o":"m 200 700 q 257 676 233 700 q 280 620 280 653 q 257 563 280 587 q 200 540 233 540 q 144 563 168 540 q 121 620 121 587 q 144 676 121 653 q 200 700 168 700 l 200 700 m 200 325 q 257 301 233 325 q 280 245 280 278 q 257 189 280 212 q 200 166 233 166 q 144 189 168 166 q 121 245 121 212 q 144 301 121 278 q 200 325 168 325 "},"î":{"x_min":121.390625,"x_max":280.765625,"ha":294,"o":"m 200 700 q 257 676 233 700 q 280 620 280 653 q 257 563 280 587 q 200 540 233 540 q 144 563 168 540 q 121 620 121 587 q 144 676 121 653 q 200 700 168 700 l 200 700 m 200 325 q 257 301 233 325 q 280 245 280 278 q 257 189 280 212 q 200 166 233 166 q 144 189 168 166 q 121 245 121 212 q 144 301 121 278 q 200 325 168 325 "},"c":{"x_min":40.6875,"x_max":790.0625,"ha":829,"o":"m 219 698 l 219 698 l 149 828 l 663 828 l 594 705 q 734 566 678 657 q 790 377 790 476 q 678 113 790 222 q 413 4 566 4 q 149 113 259 4 q 40 377 40 222 q 87 562 40 476 q 219 698 133 649 m 328 665 q 177 545 228 627 q 126 386 126 463 q 210 183 126 267 q 413 99 295 99 q 618 183 531 99 q 704 386 704 267 q 646 551 704 463 q 484 672 588 639 l 528 749 l 284 749 l 328 665 "},"¶":{"x_min":121.390625,"x_max":280.765625,"ha":294,"o":"m 200 700 q 257 676 233 700 q 280 620 280 653 q 257 563 280 587 q 200 540 233 540 q 144 563 168 540 q 121 620 121 587 q 144 676 121 653 q 200 700 168 700 l 200 700 m 200 325 q 257 301 233 325 q 280 245 280 278 q 257 189 280 212 q 200 166 233 166 q 144 189 168 166 q 121 245 121 212 q 144 301 121 278 q 200 325 168 325 "},"":{"x_min":121.390625,"x_max":280.765625,"ha":294,"o":"m 200 700 q 257 676 233 700 q 280 620 280 653 q 257 563 280 587 q 200 540 233 540 q 144 563 168 540 q 121 620 121 587 q 144 676 121 653 q 200 700 168 700 l 200 700 m 200 325 q 257 301 233 325 q 280 245 280 278 q 257 189 280 212 q 200 166 233 166 q 144 189 168 166 q 121 245 121 212 q 144 301 121 278 q 200 325 168 325 "},"¥":{"x_min":121.390625,"x_max":280.765625,"ha":294,"o":"m 200 700 q 257 676 233 700 q 280 620 280 653 q 257 563 280 587 q 200 540 233 540 q 144 563 168 540 q 121 620 121 587 q 144 676 121 653 q 200 700 168 700 l 200 700 m 200 325 q 257 301 233 325 q 280 245 280 278 q 257 189 280 212 q 200 166 233 166 q 144 189 168 166 q 121 245 121 212 q 144 301 121 278 q 200 325 168 325 "},"(":{"x_min":121.390625,"x_max":280.765625,"ha":294,"o":"m 200 700 q 257 676 233 700 q 280 620 280 653 q 257 563 280 587 q 200 540 233 540 q 144 563 168 540 q 121 620 121 587 q 144 676 121 653 q 200 700 168 700 l 200 700 m 200 325 q 257 301 233 325 q 280 245 280 278 q 257 189 280 212 q 200 166 233 166 q 144 189 168 166 q 121 245 121 212 q 144 301 121 278 q 200 325 168 325 "},"U":{"x_min":43.671875,"x_max":925.703125,"ha":979,"o":"m 118 813 l 118 813 q 226 738 185 770 q 374 678 268 705 q 528 664 449 659 q 673 691 608 670 q 783 749 750 715 q 870 828 817 783 l 925 738 q 808 669 867 689 q 701 619 750 648 q 773 632 765 634 q 823 635 781 631 q 864 609 849 637 q 846 544 878 581 q 808 527 834 530 q 720 520 782 524 q 853 358 773 455 q 897 169 933 260 q 824 64 878 122 q 720 11 771 6 q 534 46 637 19 q 350 86 432 72 q 238 60 313 92 q 126 27 163 27 q 76 49 112 27 q 44 86 40 72 q 154 347 77 210 q 288 607 232 484 q 165 659 210 626 q 59 754 120 692 l 118 813 m 382 579 l 382 579 q 264 353 329 458 q 138 130 199 248 q 141 125 142 126 q 150 114 140 124 q 231 155 185 144 q 311 165 278 167 q 512 121 426 158 q 712 106 598 84 q 775 143 773 117 q 788 201 777 169 q 788 241 793 219 q 775 280 782 263 q 705 396 747 347 q 630 548 663 444 q 696 569 622 570 q 803 583 771 568 q 719 587 779 586 q 665 592 659 587 q 539 572 615 577 q 382 579 463 567 m 407 469 q 457 412 457 469 q 407 354 457 354 q 358 412 358 354 q 407 469 358 469 "},"Ñ":{"x_min":121.390625,"x_max":280.765625,"ha":294,"o":"m 200 700 q 257 676 233 700 q 280 620 280 653 q 257 563 280 587 q 200 540 233 540 q 144 563 168 540 q 121 620 121 587 q 144 676 121 653 q 200 700 168 700 l 200 700 m 200 325 q 257 301 233 325 q 280 245 280 278 q 257 189 280 212 q 200 166 233 166 q 144 189 168 166 q 121 245 121 212 q 144 301 121 278 q 200 325 168 325 "},"F":{"x_min":121.390625,"x_max":280.765625,"ha":294,"o":"m 200 700 q 257 676 233 700 q 280 620 280 653 q 257 563 280 587 q 200 540 233 540 q 144 563 168 540 q 121 620 121 587 q 144 676 121 653 q 200 700 168 700 l 200 700 m 200 325 q 257 301 233 325 q 280 245 280 278 q 257 189 280 212 q 200 166 233 166 q 144 189 168 166 q 121 245 121 212 q 144 301 121 278 q 200 325 168 325 "},"­":{"x_min":121.390625,"x_max":280.765625,"ha":294,"o":"m 200 700 q 257 676 233 700 q 280 620 280 653 q 257 563 280 587 q 200 540 233 540 q 144 563 168 540 q 121 620 121 587 q 144 676 121 653 q 200 700 168 700 l 200 700 m 200 325 q 257 301 233 325 q 280 245 280 278 q 257 189 280 212 q 200 166 233 166 q 144 189 168 166 q 121 245 121 212 q 144 301 121 278 q 200 325 168 325 "},":":{"x_min":121.390625,"x_max":280.765625,"ha":294,"o":"m 200 700 q 257 676 233 700 q 280 620 280 653 q 257 563 280 587 q 200 540 233 540 q 144 563 168 540 q 121 620 121 587 q 144 676 121 653 q 200 700 168 700 l 200 700 m 200 325 q 257 301 233 325 q 280 245 280 278 q 257 189 280 212 q 200 166 233 166 q 144 189 168 166 q 121 245 121 212 q 144 301 121 278 q 200 325 168 325 "},"Û":{"x_min":121.390625,"x_max":280.765625,"ha":294,"o":"m 200 700 q 257 676 233 700 q 280 620 280 653 q 257 563 280 587 q 200 540 233 540 q 144 563 168 540 q 121 620 121 587 q 144 676 121 653 q 200 700 168 700 l 200 700 m 200 325 q 257 301 233 325 q 280 245 280 278 q 257 189 280 212 q 200 166 233 166 q 144 189 168 166 q 121 245 121 212 q 144 301 121 278 q 200 325 168 325 "},"*":{"x_min":121.390625,"x_max":280.765625,"ha":294,"o":"m 200 700 q 257 676 233 700 q 280 620 280 653 q 257 563 280 587 q 200 540 233 540 q 144 563 168 540 q 121 620 121 587 q 144 676 121 653 q 200 700 168 700 l 200 700 m 200 325 q 257 301 233 325 q 280 245 280 278 q 257 189 280 212 q 200 166 233 166 q 144 189 168 166 q 121 245 121 212 q 144 301 121 278 q 200 325 168 325 "},"°":{"x_min":121.390625,"x_max":280.765625,"ha":294,"o":"m 200 700 q 257 676 233 700 q 280 620 280 653 q 257 563 280 587 q 200 540 233 540 q 144 563 168 540 q 121 620 121 587 q 144 676 121 653 q 200 700 168 700 l 200 700 m 200 325 q 257 301 233 325 q 280 245 280 278 q 257 189 280 212 q 200 166 233 166 q 144 189 168 166 q 121 245 121 212 q 144 301 121 278 q 200 325 168 325 "},"V":{"x_min":27.8125,"x_max":950.109375,"ha":998,"o":"m 30 693 l 30 695 l 950 695 l 950 609 l 950 -2 l 846 -2 l 461 -2 l 458 -2 l 458 413 l 560 413 l 560 77 l 846 77 l 846 609 l 134 609 l 134 -2 l 30 -2 l 30 693 l 30 693 m 27 829 l 950 829 l 950 748 l 27 748 l 27 829 "},"å":{"x_min":121.390625,"x_max":280.765625,"ha":294,"o":"m 200 700 q 257 676 233 700 q 280 620 280 653 q 257 563 280 587 q 200 540 233 540 q 144 563 168 540 q 121 620 121 587 q 144 676 121 653 q 200 700 168 700 l 200 700 m 200 325 q 257 301 233 325 q 280 245 280 278 q 257 189 280 212 q 200 166 233 166 q 144 189 168 166 q 121 245 121 212 q 144 301 121 278 q 200 325 168 325 "}," ":{"x_min":121.390625,"x_max":280.765625,"ha":294,"o":"m 200 700 q 257 676 233 700 q 280 620 280 653 q 257 563 280 587 q 200 540 233 540 q 144 563 168 540 q 121 620 121 587 q 144 676 121 653 q 200 700 168 700 l 200 700 m 200 325 q 257 301 233 325 q 280 245 280 278 q 257 189 280 212 q 200 166 233 166 q 144 189 168 166 q 121 245 121 212 q 144 301 121 278 q 200 325 168 325 "},"":{"x_min":121.390625,"x_max":280.765625,"ha":294,"o":"m 200 700 q 257 676 233 700 q 280 620 280 653 q 257 563 280 587 q 200 540 233 540 q 144 563 168 540 q 121 620 121 587 q 144 676 121 653 q 200 700 168 700 l 200 700 m 200 325 q 257 301 233 325 q 280 245 280 278 q 257 189 280 212 q 200 166 233 166 q 144 189 168 166 q 121 245 121 212 q 144 301 121 278 q 200 325 168 325 "},"0":{"x_min":121.390625,"x_max":280.765625,"ha":294,"o":"m 200 700 q 257 676 233 700 q 280 620 280 653 q 257 563 280 587 q 200 540 233 540 q 144 563 168 540 q 121 620 121 587 q 144 676 121 653 q 200 700 168 700 l 200 700 m 200 325 q 257 301 233 325 q 280 245 280 278 q 257 189 280 212 q 200 166 233 166 q 144 189 168 166 q 121 245 121 212 q 144 301 121 278 q 200 325 168 325 "},"¾":{"x_min":121.390625,"x_max":280.765625,"ha":294,"o":"m 200 700 q 257 676 233 700 q 280 620 280 653 q 257 563 280 587 q 200 540 233 540 q 144 563 168 540 q 121 620 121 587 q 144 676 121 653 q 200 700 168 700 l 200 700 m 200 325 q 257 301 233 325 q 280 245 280 278 q 257 189 280 212 q 200 166 233 166 q 144 189 168 166 q 121 245 121 212 q 144 301 121 278 q 200 325 168 325 "},"@":{"x_min":121.390625,"x_max":280.765625,"ha":294,"o":"m 200 700 q 257 676 233 700 q 280 620 280 653 q 257 563 280 587 q 200 540 233 540 q 144 563 168 540 q 121 620 121 587 q 144 676 121 653 q 200 700 168 700 l 200 700 m 200 325 q 257 301 233 325 q 280 245 280 278 q 257 189 280 212 q 200 166 233 166 q 144 189 168 166 q 121 245 121 212 q 144 301 121 278 q 200 325 168 325 "},"ö":{"x_min":121.390625,"x_max":280.765625,"ha":294,"o":"m 200 700 q 257 676 233 700 q 280 620 280 653 q 257 563 280 587 q 200 540 233 540 q 144 563 168 540 q 121 620 121 587 q 144 676 121 653 q 200 700 168 700 l 200 700 m 200 325 q 257 301 233 325 q 280 245 280 278 q 257 189 280 212 q 200 166 233 166 q 144 189 168 166 q 121 245 121 212 q 144 301 121 278 q 200 325 168 325 "},"i":{"x_min":14.25,"x_max":767.796875,"ha":807,"o":"m 151 682 q 88 764 139 683 q 14 904 37 845 q 25 920 11 912 q 44 923 38 929 q 107 836 80 884 q 164 744 134 789 q 258 810 214 783 q 326 855 301 838 q 380 869 345 861 q 434 878 414 876 q 386 925 405 892 q 373 986 368 958 q 501 1107 390 1086 q 581 1083 544 1115 q 611 993 617 1050 q 578 924 607 957 q 512 874 549 890 q 597 866 556 871 q 680 849 638 861 q 740 753 714 832 q 767 585 766 674 q 753 430 769 480 q 729 372 737 381 q 700 380 716 366 q 684 398 684 394 q 700 483 690 448 q 709 579 711 518 q 695 682 706 658 q 658 783 684 707 q 587 616 623 740 q 596 560 589 592 q 606 515 604 529 q 614 440 611 457 q 623 366 617 424 q 681 223 661 282 q 710 30 700 163 q 640 18 674 26 q 571 14 607 10 q 562 26 563 14 q 567 43 561 39 q 603 55 583 53 q 642 63 623 57 q 607 248 638 167 q 564 341 575 328 q 477 336 547 346 q 362 321 407 325 q 326 167 346 240 q 290 14 307 94 q 230 11 260 10 q 198 22 201 12 q 208 39 196 27 q 242 52 219 50 q 276 189 252 123 q 310 325 299 254 q 301 325 310 329 q 287 330 291 321 q 303 454 292 404 q 349 619 314 504 q 345 709 348 668 q 343 799 343 750 q 246 727 319 771 q 151 682 172 682 l 151 682 m 513 1059 q 460 1034 488 1059 q 431 984 432 1008 q 484 921 428 925 q 523 936 499 919 q 554 976 546 953 q 553 1029 562 1000 q 513 1059 544 1058 l 513 1059 m 398 816 q 402 717 400 767 q 408 619 405 668 q 474 628 440 623 q 541 636 507 632 q 575 734 560 693 q 619 816 590 775 q 554 832 585 823 q 486 845 522 841 q 440 832 459 841 q 398 816 420 823 l 398 816 m 391 567 q 372 474 379 547 q 365 383 365 400 q 461 388 381 376 q 557 409 541 401 q 547 498 560 432 q 528 583 534 565 q 461 580 514 587 q 391 567 408 573 "},"Õ":{"x_min":121.390625,"x_max":280.765625,"ha":294,"o":"m 200 700 q 257 676 233 700 q 280 620 280 653 q 257 563 280 587 q 200 540 233 540 q 144 563 168 540 q 121 620 121 587 q 144 676 121 653 q 200 700 168 700 l 200 700 m 200 325 q 257 301 233 325 q 280 245 280 278 q 257 189 280 212 q 200 166 233 166 q 144 189 168 166 q 121 245 121 212 q 144 301 121 278 q 200 325 168 325 "},"þ":{"x_min":121.390625,"x_max":280.765625,"ha":294,"o":"m 200 700 q 257 676 233 700 q 280 620 280 653 q 257 563 280 587 q 200 540 233 540 q 144 563 168 540 q 121 620 121 587 q 144 676 121 653 q 200 700 168 700 l 200 700 m 200 325 q 257 301 233 325 q 280 245 280 278 q 257 189 280 212 q 200 166 233 166 q 144 189 168 166 q 121 245 121 212 q 144 301 121 278 q 200 325 168 325 "},"]":{"x_min":121.390625,"x_max":280.765625,"ha":294,"o":"m 200 700 q 257 676 233 700 q 280 620 280 653 q 257 563 280 587 q 200 540 233 540 q 144 563 168 540 q 121 620 121 587 q 144 676 121 653 q 200 700 168 700 l 200 700 m 200 325 q 257 301 233 325 q 280 245 280 278 q 257 189 280 212 q 200 166 233 166 q 144 189 168 166 q 121 245 121 212 q 144 301 121 278 q 200 325 168 325 "},"m":{"x_min":58.390625,"x_max":1019.859375,"ha":1076,"o":"m 124 1026 q 171 1048 158 1046 q 221 1032 185 1049 q 272 1053 265 1053 q 319 1022 280 1052 q 307 1001 315 1015 q 274 1023 278 1022 q 244 1001 270 1024 q 244 960 244 984 q 244 921 244 937 q 228 921 236 921 q 211 921 219 921 q 211 964 211 939 q 211 1007 211 988 q 170 1021 183 1026 q 130 998 158 1017 q 127 1012 128 1005 q 124 1026 125 1019 l 124 1026 m 136 1092 q 101 1024 115 1051 q 94 968 86 996 q 171 867 107 919 q 241 847 207 837 q 301 887 276 857 q 342 930 323 912 q 370 991 360 947 q 361 1043 375 1013 q 347 1095 347 1072 q 238 1074 290 1076 q 136 1092 187 1072 l 136 1092 m 270 458 q 299 412 286 432 q 328 367 312 391 q 344 300 337 326 q 356 227 351 274 q 401 212 379 221 q 445 198 423 204 q 423 281 436 237 q 402 366 411 326 q 336 412 364 390 q 270 458 308 434 l 270 458 m 330 52 q 413 51 372 52 q 497 50 455 50 q 508 128 502 89 q 520 206 514 167 q 484 259 497 245 q 448 311 470 272 q 469 214 457 266 q 478 156 482 162 q 433 159 472 150 q 366 179 394 168 q 348 115 353 145 q 330 52 343 86 l 330 52 m 141 832 q 91 893 120 866 q 59 960 61 919 q 77 1045 54 1004 q 115 1129 101 1087 q 237 1114 164 1112 q 378 1132 310 1116 q 402 1052 384 1095 q 412 973 420 1010 q 378 908 404 935 q 331 849 353 882 q 490 772 418 833 q 626 628 562 710 q 751 455 691 545 q 876 292 811 364 q 967 212 910 255 q 1019 161 1025 169 q 978 183 1017 158 q 914 229 939 208 q 964 139 939 184 q 1015 48 990 93 q 933 28 975 38 q 851 8 892 18 q 739 159 795 84 q 627 311 683 235 q 635 213 635 229 q 653 178 634 197 q 647 167 656 174 q 639 154 638 160 q 595 180 623 164 q 551 196 567 196 q 542 97 544 153 q 530 25 540 41 q 468 19 524 21 q 348 16 413 16 q 228 17 283 15 q 166 23 172 18 q 170 44 170 44 q 226 47 181 52 q 287 44 271 42 q 308 99 299 54 q 328 177 318 144 q 312 263 320 220 q 297 348 305 305 q 207 513 243 452 q 153 620 172 574 q 131 713 134 667 q 141 832 128 758 l 141 832 m 657 325 q 764 190 712 250 q 872 56 815 130 q 916 67 899 64 q 960 79 933 70 q 918 161 936 122 q 877 243 901 200 q 767 284 817 265 q 657 325 716 302 l 657 325 m 617 341 q 517 379 567 360 q 420 423 466 399 q 325 492 363 453 q 248 577 286 530 q 217 649 229 609 q 197 725 205 689 q 273 752 231 741 q 349 779 314 762 q 364 756 354 771 q 291 729 329 739 q 236 715 252 719 q 301 578 252 646 q 409 473 349 509 q 617 377 513 410 q 833 295 721 344 q 680 488 738 405 q 571 634 623 571 q 458 744 519 697 q 295 829 396 791 q 269 816 276 818 q 242 811 262 815 q 212 813 219 807 q 183 821 206 818 q 186 671 170 728 q 249 513 202 614 q 338 453 295 482 q 428 394 381 423 q 488 313 457 352 q 550 233 520 274 q 580 220 566 225 q 613 203 594 216 q 604 270 599 238 q 609 340 609 303 q 613 340 611 340 q 617 341 615 341 "},"8":{"x_min":121.390625,"x_max":280.765625,"ha":294,"o":"m 200 700 q 257 676 233 700 q 280 620 280 653 q 257 563 280 587 q 200 540 233 540 q 144 563 168 540 q 121 620 121 587 q 144 676 121 653 q 200 700 168 700 l 200 700 m 200 325 q 257 301 233 325 q 280 245 280 278 q 257 189 280 212 q 200 166 233 166 q 144 189 168 166 q 121 245 121 212 q 144 301 121 278 q 200 325 168 325 "},"":{"x_min":121.390625,"x_max":280.765625,"ha":294,"o":"m 200 700 q 257 676 233 700 q 280 620 280 653 q 257 563 280 587 q 200 540 233 540 q 144 563 168 540 q 121 620 121 587 q 144 676 121 653 q 200 700 168 700 l 200 700 m 200 325 q 257 301 233 325 q 280 245 280 278 q 257 189 280 212 q 200 166 233 166 q 144 189 168 166 q 121 245 121 212 q 144 301 121 278 q 200 325 168 325 "},"R":{"x_min":18.3125,"x_max":1317.6875,"ha":1383,"o":"m 172 668 q 234 541 216 613 q 252 391 252 468 q 235 244 252 316 q 175 118 218 173 l 1159 118 q 1099 244 1116 172 q 1083 391 1083 316 q 1100 541 1083 468 q 1163 668 1118 613 l 172 668 l 172 668 m 1315 118 l 1317 118 l 1317 17 l 18 17 l 18 118 l 18 118 q 100 251 71 186 q 129 391 129 316 q 18 669 129 550 l 18 669 l 18 771 l 1317 771 l 1317 669 l 1315 669 q 1205 391 1205 550 q 1234 251 1205 316 q 1315 118 1262 186 l 1315 118 m 368 448 l 967 448 l 967 339 l 368 339 l 368 448 "},"á":{"x_min":121.390625,"x_max":280.765625,"ha":294,"o":"m 200 700 q 257 676 233 700 q 280 620 280 653 q 257 563 280 587 q 200 540 233 540 q 144 563 168 540 q 121 620 121 587 q 144 676 121 653 q 200 700 168 700 l 200 700 m 200 325 q 257 301 233 325 q 280 245 280 278 q 257 189 280 212 q 200 166 233 166 q 144 189 168 166 q 121 245 121 212 q 144 301 121 278 q 200 325 168 325 "},"×":{"x_min":121.390625,"x_max":280.765625,"ha":294,"o":"m 200 700 q 257 676 233 700 q 280 620 280 653 q 257 563 280 587 q 200 540 233 540 q 144 563 168 540 q 121 620 121 587 q 144 676 121 653 q 200 700 168 700 l 200 700 m 200 325 q 257 301 233 325 q 280 245 280 278 q 257 189 280 212 q 200 166 233 166 q 144 189 168 166 q 121 245 121 212 q 144 301 121 278 q 200 325 168 325 "},"o":{"x_min":42.046875,"x_max":1318.359375,"ha":1384,"o":"m 42 467 q 261 471 170 471 q 480 481 352 471 q 729 524 615 491 q 944 603 844 558 q 1121 696 1036 644 q 1318 829 1207 748 q 1187 500 1275 622 q 1013 280 1099 377 q 800 130 939 196 q 549 42 661 65 q 298 14 435 18 q 42 7 162 11 l 42 467 l 42 467 m 152 353 l 152 128 q 341 133 246 131 q 525 151 437 136 q 675 194 613 165 q 812 265 737 223 q 960 370 891 310 q 1104 571 1028 430 q 967 489 1017 501 q 847 450 918 476 q 685 399 769 421 q 497 366 601 377 q 436 359 450 361 q 400 357 423 358 q 326 355 378 356 q 152 353 275 355 "},"5":{"x_min":121.390625,"x_max":280.765625,"ha":294,"o":"m 200 700 q 257 676 233 700 q 280 620 280 653 q 257 563 280 587 q 200 540 233 540 q 144 563 168 540 q 121 620 121 587 q 144 676 121 653 q 200 700 168 700 l 200 700 m 200 325 q 257 301 233 325 q 280 245 280 278 q 257 189 280 212 q 200 166 233 166 q 144 189 168 166 q 121 245 121 212 q 144 301 121 278 q 200 325 168 325 "},"õ":{"x_min":121.390625,"x_max":280.765625,"ha":294,"o":"m 200 700 q 257 676 233 700 q 280 620 280 653 q 257 563 280 587 q 200 540 233 540 q 144 563 168 540 q 121 620 121 587 q 144 676 121 653 q 200 700 168 700 l 200 700 m 200 325 q 257 301 233 325 q 280 245 280 278 q 257 189 280 212 q 200 166 233 166 q 144 189 168 166 q 121 245 121 212 q 144 301 121 278 q 200 325 168 325 "},"":{"x_min":121.390625,"x_max":280.765625,"ha":294,"o":"m 200 700 q 257 676 233 700 q 280 620 280 653 q 257 563 280 587 q 200 540 233 540 q 144 563 168 540 q 121 620 121 587 q 144 676 121 653 q 200 700 168 700 l 200 700 m 200 325 q 257 301 233 325 q 280 245 280 278 q 257 189 280 212 q 200 166 233 166 q 144 189 168 166 q 121 245 121 212 q 144 301 121 278 q 200 325 168 325 "},"7":{"x_min":121.390625,"x_max":280.765625,"ha":294,"o":"m 200 700 q 257 676 233 700 q 280 620 280 653 q 257 563 280 587 q 200 540 233 540 q 144 563 168 540 q 121 620 121 587 q 144 676 121 653 q 200 700 168 700 l 200 700 m 200 325 q 257 301 233 325 q 280 245 280 278 q 257 189 280 212 q 200 166 233 166 q 144 189 168 166 q 121 245 121 212 q 144 301 121 278 q 200 325 168 325 "},"K":{"x_min":24.421875,"x_max":1175.265625,"ha":1234,"o":"m 24 936 q 56 958 38 956 q 151 994 75 960 q 212 1049 179 1015 q 280 1085 245 1084 q 348 1072 318 1085 q 388 996 378 1059 q 357 859 400 919 q 267 718 314 798 q 386 727 331 714 q 502 718 441 740 q 752 585 633 668 q 994 436 871 503 q 1068 423 1031 429 q 1142 410 1105 417 q 1055 399 1099 404 q 969 388 1011 394 q 1071 364 1019 376 q 1175 341 1123 353 q 1037 287 1106 314 q 900 233 969 260 q 915 109 906 181 q 922 23 924 37 q 840 7 914 10 q 704 8 765 4 q 696 23 696 8 q 704 41 697 38 q 777 61 746 56 q 853 73 809 65 q 838 145 846 113 q 824 218 831 178 q 685 250 755 232 q 547 284 616 269 q 524 130 537 220 q 507 37 512 40 q 431 30 502 32 q 303 37 360 28 q 297 54 295 38 q 307 73 299 71 q 379 84 349 85 q 453 88 409 84 q 470 187 461 140 q 488 287 479 234 q 281 445 397 364 q 183 645 166 527 q 226 755 198 741 q 314 874 255 769 q 122 922 152 915 q 24 936 92 930 l 24 936 m 273 1016 q 296 986 296 1016 q 271 960 296 960 q 249 972 254 960 q 244 990 244 983 q 273 1016 244 1016 l 273 1016 m 249 667 q 238 631 240 666 q 253 577 237 596 q 378 445 318 496 q 532 341 438 395 q 686 291 602 301 q 850 261 770 282 q 932 294 891 278 q 1016 327 974 311 q 984 334 1000 330 q 951 341 967 337 q 842 334 897 341 q 738 341 788 326 q 621 377 688 356 q 494 420 554 398 q 393 462 434 442 q 356 495 352 482 q 409 517 364 533 q 475 528 455 501 q 464 563 486 544 q 432 600 442 582 q 499 556 459 582 q 551 499 538 529 q 510 488 556 485 q 457 477 463 491 q 489 455 453 469 q 578 424 526 440 q 681 397 629 409 q 762 381 734 384 q 845 389 811 375 q 922 410 878 402 q 704 549 811 474 q 478 667 598 623 q 364 679 419 688 q 249 667 309 670 l 249 667 m 122 952 q 241 936 162 949 q 337 915 321 923 q 348 957 345 931 q 351 996 351 984 q 323 1035 348 1020 q 273 1045 298 1049 q 213 997 234 1038 q 122 952 192 956 "},",":{"x_min":121.390625,"x_max":280.765625,"ha":294,"o":"m 200 700 q 257 676 233 700 q 280 620 280 653 q 257 563 280 587 q 200 540 233 540 q 144 563 168 540 q 121 620 121 587 q 144 676 121 653 q 200 700 168 700 l 200 700 m 200 325 q 257 301 233 325 q 280 245 280 278 q 257 189 280 212 q 200 166 233 166 q 144 189 168 166 q 121 245 121 212 q 144 301 121 278 q 200 325 168 325 "},"d":{"x_min":35.21875,"x_max":1306.34375,"ha":1377,"o":"m 748 695 q 751 658 751 680 q 711 583 751 614 q 614 552 670 552 q 517 583 557 552 q 476 658 476 614 q 491 705 476 681 q 285 647 390 686 q 122 560 181 607 q 368 436 244 461 q 620 416 491 411 q 840 484 748 420 q 1054 595 933 549 q 896 645 977 615 q 748 695 816 674 l 748 695 m 667 356 q 878 253 796 333 q 1087 141 960 172 q 1144 155 1112 135 q 1175 208 1176 175 q 1154 276 1173 263 q 1110 282 1136 288 q 1091 250 1093 278 q 1078 222 1089 222 q 1056 238 1062 222 q 1052 263 1051 253 q 1065 309 1054 288 q 1108 337 1076 331 q 1205 305 1178 351 q 1231 212 1232 259 q 1189 123 1229 166 q 1083 85 1150 80 q 838 190 941 94 q 598 325 734 286 q 629 207 600 259 q 642 109 657 155 q 607 71 635 84 q 554 58 579 58 q 508 72 536 58 q 467 122 480 86 q 440 353 425 238 q 230 425 333 369 q 35 564 127 481 q 75 596 29 569 q 118 630 120 623 q 73 679 112 644 q 46 723 34 714 q 303 892 179 826 q 595 963 427 958 q 912 908 754 966 q 1270 752 1070 849 q 1256 719 1277 748 q 1226 695 1236 691 q 878 835 1009 772 q 602 893 748 897 q 376 846 478 889 q 143 714 275 802 q 157 693 143 714 q 177 663 171 672 q 282 710 242 688 q 362 748 322 731 q 458 774 403 764 q 609 788 513 785 q 782 776 721 792 q 905 731 844 760 q 1052 662 966 702 q 1299 579 1137 623 q 1302 550 1311 575 q 1285 524 1293 524 q 1176 546 1236 520 q 1100 560 1116 573 q 904 433 1024 499 q 667 356 783 367 l 667 356 m 540 352 q 498 349 498 350 q 518 153 491 218 q 579 114 545 88 q 570 187 602 133 q 540 352 537 242 l 540 352 m 657 709 q 576 708 617 714 q 555 665 555 694 q 619 613 555 613 q 682 665 682 613 q 657 709 682 693 "},"¨":{"x_min":121.390625,"x_max":280.765625,"ha":294,"o":"m 200 700 q 257 676 233 700 q 280 620 280 653 q 257 563 280 587 q 200 540 233 540 q 144 563 168 540 q 121 620 121 587 q 144 676 121 653 q 200 700 168 700 l 200 700 m 200 325 q 257 301 233 325 q 280 245 280 278 q 257 189 280 212 q 200 166 233 166 q 144 189 168 166 q 121 245 121 212 q 144 301 121 278 q 200 325 168 325 "},"Ô":{"x_min":121.390625,"x_max":280.765625,"ha":294,"o":"m 200 700 q 257 676 233 700 q 280 620 280 653 q 257 563 280 587 q 200 540 233 540 q 144 563 168 540 q 121 620 121 587 q 144 676 121 653 q 200 700 168 700 l 200 700 m 200 325 q 257 301 233 325 q 280 245 280 278 q 257 189 280 212 q 200 166 233 166 q 144 189 168 166 q 121 245 121 212 q 144 301 121 278 q 200 325 168 325 "},"E":{"x_min":174.296875,"x_max":592.984375,"ha":625,"o":"m 299 1127 q 390 1143 354 1156 q 461 1104 426 1130 q 527 1015 501 1074 q 554 906 554 956 q 509 806 554 862 q 464 707 465 750 q 503 587 480 655 q 547 457 526 519 q 582 348 568 394 q 592 295 596 303 q 469 216 583 279 q 276 105 354 152 l 276 2 l 174 2 l 175 775 q 187 972 175 870 q 299 1127 198 1073 l 299 1127 m 274 202 q 399 272 325 232 q 481 323 473 311 q 445 479 491 337 q 373 720 400 621 q 407 816 363 757 q 459 912 450 874 q 445 996 470 965 q 395 1040 419 1028 q 346 1027 376 1049 q 299 986 316 1006 q 270 889 267 947 q 274 781 274 831 l 274 202 "},"Y":{"x_min":70.53125,"x_max":943.25,"ha":1001,"o":"m 342 388 q 337 674 341 568 q 315 843 332 780 q 260 943 297 907 q 158 1019 223 979 l 158 478 l 342 388 l 342 388 m 337 284 l 70 423 l 70 1138 q 359 992 265 1142 q 441 492 453 841 l 442 3 l 336 3 q 336 144 336 76 q 337 284 336 212 l 337 284 m 842 388 q 837 674 842 568 q 815 843 833 780 q 760 943 796 907 q 658 1019 723 979 l 658 478 l 842 388 l 842 388 m 837 284 l 571 423 l 571 1138 q 859 992 766 1142 q 941 492 953 841 l 942 3 l 836 3 q 836 144 836 76 q 837 284 836 212 "},"":{"x_min":121.390625,"x_max":280.765625,"ha":294,"o":"m 200 700 q 257 676 233 700 q 280 620 280 653 q 257 563 280 587 q 200 540 233 540 q 144 563 168 540 q 121 620 121 587 q 144 676 121 653 q 200 700 168 700 l 200 700 m 200 325 q 257 301 233 325 q 280 245 280 278 q 257 189 280 212 q 200 166 233 166 q 144 189 168 166 q 121 245 121 212 q 144 301 121 278 q 200 325 168 325 "},"\"":{"x_min":121.390625,"x_max":280.765625,"ha":294,"o":"m 200 700 q 257 676 233 700 q 280 620 280 653 q 257 563 280 587 q 200 540 233 540 q 144 563 168 540 q 121 620 121 587 q 144 676 121 653 q 200 700 168 700 l 200 700 m 200 325 q 257 301 233 325 q 280 245 280 278 q 257 189 280 212 q 200 166 233 166 q 144 189 168 166 q 121 245 121 212 q 144 301 121 278 q 200 325 168 325 "},"ê":{"x_min":121.390625,"x_max":280.765625,"ha":294,"o":"m 200 700 q 257 676 233 700 q 280 620 280 653 q 257 563 280 587 q 200 540 233 540 q 144 563 168 540 q 121 620 121 587 q 144 676 121 653 q 200 700 168 700 l 200 700 m 200 325 q 257 301 233 325 q 280 245 280 278 q 257 189 280 212 q 200 166 233 166 q 144 189 168 166 q 121 245 121 212 q 144 301 121 278 q 200 325 168 325 "},"Ï":{"x_min":121.390625,"x_max":280.765625,"ha":294,"o":"m 200 700 q 257 676 233 700 q 280 620 280 653 q 257 563 280 587 q 200 540 233 540 q 144 563 168 540 q 121 620 121 587 q 144 676 121 653 q 200 700 168 700 l 200 700 m 200 325 q 257 301 233 325 q 280 245 280 278 q 257 189 280 212 q 200 166 233 166 q 144 189 168 166 q 121 245 121 212 q 144 301 121 278 q 200 325 168 325 "},"Â":{"x_min":121.390625,"x_max":280.765625,"ha":294,"o":"m 200 700 q 257 676 233 700 q 280 620 280 653 q 257 563 280 587 q 200 540 233 540 q 144 563 168 540 q 121 620 121 587 q 144 676 121 653 q 200 700 168 700 l 200 700 m 200 325 q 257 301 233 325 q 280 245 280 278 q 257 189 280 212 q 200 166 233 166 q 144 189 168 166 q 121 245 121 212 q 144 301 121 278 q 200 325 168 325 "},"Í":{"x_min":121.390625,"x_max":280.765625,"ha":294,"o":"m 200 700 q 257 676 233 700 q 280 620 280 653 q 257 563 280 587 q 200 540 233 540 q 144 563 168 540 q 121 620 121 587 q 144 676 121 653 q 200 700 168 700 l 200 700 m 200 325 q 257 301 233 325 q 280 245 280 278 q 257 189 280 212 q 200 166 233 166 q 144 189 168 166 q 121 245 121 212 q 144 301 121 278 q 200 325 168 325 "},"´":{"x_min":121.390625,"x_max":280.765625,"ha":294,"o":"m 200 700 q 257 676 233 700 q 280 620 280 653 q 257 563 280 587 q 200 540 233 540 q 144 563 168 540 q 121 620 121 587 q 144 676 121 653 q 200 700 168 700 l 200 700 m 200 325 q 257 301 233 325 q 280 245 280 278 q 257 189 280 212 q 200 166 233 166 q 144 189 168 166 q 121 245 121 212 q 144 301 121 278 q 200 325 168 325 "},"ì":{"x_min":121.390625,"x_max":280.765625,"ha":294,"o":"m 200 700 q 257 676 233 700 q 280 620 280 653 q 257 563 280 587 q 200 540 233 540 q 144 563 168 540 q 121 620 121 587 q 144 676 121 653 q 200 700 168 700 l 200 700 m 200 325 q 257 301 233 325 q 280 245 280 278 q 257 189 280 212 q 200 166 233 166 q 144 189 168 166 q 121 245 121 212 q 144 301 121 278 q 200 325 168 325 "},"±":{"x_min":121.390625,"x_max":280.765625,"ha":294,"o":"m 200 700 q 257 676 233 700 q 280 620 280 653 q 257 563 280 587 q 200 540 233 540 q 144 563 168 540 q 121 620 121 587 q 144 676 121 653 q 200 700 168 700 l 200 700 m 200 325 q 257 301 233 325 q 280 245 280 278 q 257 189 280 212 q 200 166 233 166 q 144 189 168 166 q 121 245 121 212 q 144 301 121 278 q 200 325 168 325 "},"Ú":{"x_min":121.390625,"x_max":280.765625,"ha":294,"o":"m 200 700 q 257 676 233 700 q 280 620 280 653 q 257 563 280 587 q 200 540 233 540 q 144 563 168 540 q 121 620 121 587 q 144 676 121 653 q 200 700 168 700 l 200 700 m 200 325 q 257 301 233 325 q 280 245 280 278 q 257 189 280 212 q 200 166 233 166 q 144 189 168 166 q 121 245 121 212 q 144 301 121 278 q 200 325 168 325 "},"|":{"x_min":121.390625,"x_max":280.765625,"ha":294,"o":"m 200 700 q 257 676 233 700 q 280 620 280 653 q 257 563 280 587 q 200 540 233 540 q 144 563 168 540 q 121 620 121 587 q 144 676 121 653 q 200 700 168 700 l 200 700 m 200 325 q 257 301 233 325 q 280 245 280 278 q 257 189 280 212 q 200 166 233 166 q 144 189 168 166 q 121 245 121 212 q 144 301 121 278 q 200 325 168 325 "},"§":{"x_min":121.390625,"x_max":280.765625,"ha":294,"o":"m 200 700 q 257 676 233 700 q 280 620 280 653 q 257 563 280 587 q 200 540 233 540 q 144 563 168 540 q 121 620 121 587 q 144 676 121 653 q 200 700 168 700 l 200 700 m 200 325 q 257 301 233 325 q 280 245 280 278 q 257 189 280 212 q 200 166 233 166 q 144 189 168 166 q 121 245 121 212 q 144 301 121 278 q 200 325 168 325 "},"Ý":{"x_min":121.390625,"x_max":280.765625,"ha":294,"o":"m 200 700 q 257 676 233 700 q 280 620 280 653 q 257 563 280 587 q 200 540 233 540 q 144 563 168 540 q 121 620 121 587 q 144 676 121 653 q 200 700 168 700 l 200 700 m 200 325 q 257 301 233 325 q 280 245 280 278 q 257 189 280 212 q 200 166 233 166 q 144 189 168 166 q 121 245 121 212 q 144 301 121 278 q 200 325 168 325 "},"b":{"x_min":25.09375,"x_max":1391.03125,"ha":1461,"o":"m 263 1017 q 277 1005 271 1017 q 291 992 282 992 q 302 1005 299 992 q 313 1017 305 1017 q 424 1018 368 1022 q 537 1014 480 1014 q 526 977 533 1002 q 426 977 476 977 q 328 977 377 977 q 568 864 413 895 q 878 828 723 834 q 1154 828 1033 822 q 1293 825 1275 834 q 1369 691 1363 788 q 1390 497 1376 593 q 1377 490 1392 489 q 1358 497 1361 491 q 1339 633 1323 566 q 1298 735 1355 699 q 1264 584 1284 659 q 1230 434 1243 509 q 1285 359 1255 396 q 1331 278 1315 322 q 1352 204 1348 233 q 1342 128 1357 174 q 1295 65 1330 91 q 1224 27 1260 40 q 1201 43 1209 22 q 1198 77 1192 65 q 1245 114 1210 103 q 1285 153 1280 125 q 1283 227 1292 200 q 1255 297 1274 254 q 1217 353 1243 325 q 1172 405 1192 381 q 1116 206 1148 301 q 998 38 1085 111 q 970 46 988 30 q 959 71 951 61 q 1069 245 1036 162 q 1111 431 1101 329 q 759 425 870 441 q 497 420 649 409 q 528 268 509 345 q 544 117 548 192 q 500 78 544 111 q 421 33 456 46 q 407 46 412 30 q 407 70 402 61 q 451 109 419 92 q 483 140 483 126 q 452 283 482 212 q 404 423 423 354 q 328 289 356 350 q 243 164 301 228 q 181 120 225 143 q 111 101 137 97 q 97 119 100 102 q 100 145 94 135 q 148 172 113 162 q 196 202 184 183 q 253 319 236 260 q 302 442 270 378 q 286 474 295 459 q 276 508 278 490 q 260 641 265 573 q 248 775 254 708 q 158 741 209 762 q 93 724 107 720 q 63 769 80 728 q 46 832 45 810 q 124 890 47 847 q 248 977 201 934 q 136 976 192 977 q 25 974 80 975 q 25 988 25 981 q 25 1003 25 995 q 143 1013 84 1007 q 263 1017 203 1019 l 263 1017 m 302 739 q 309 613 309 678 q 331 491 309 549 q 356 470 337 473 q 392 460 374 467 q 412 617 377 539 q 557 740 447 695 q 572 725 571 745 q 562 694 573 704 q 464 587 488 632 q 448 470 440 542 q 748 473 603 458 q 1097 470 893 487 q 1066 521 1089 495 q 1047 553 1044 547 q 1086 529 1053 561 q 1136 474 1118 497 q 1161 472 1150 473 q 1185 470 1171 471 q 1214 649 1196 544 q 1223 770 1232 754 q 1094 771 1220 774 q 807 778 968 767 q 496 827 646 790 q 292 950 345 864 q 166 880 248 920 q 85 835 83 840 q 103 798 88 823 q 129 767 118 773 q 201 790 140 762 q 277 813 263 817 q 297 777 289 784 q 302 739 304 771 l 302 739 m 265 883 q 288 860 288 883 q 262 840 288 840 q 240 860 240 840 q 265 883 240 883 "},"q":{"x_min":3.390625,"x_max":836.859375,"ha":878,"o":"m 4 60 l 3 61 l 771 829 l 771 828 l 771 829 l 836 829 l 836 -3 l 836 -3 l 3 -3 l 3 60 l 4 60 l 4 60 m 739 78 l 739 643 l 166 78 l 739 78 "},"Ö":{"x_min":121.390625,"x_max":280.765625,"ha":294,"o":"m 200 700 q 257 676 233 700 q 280 620 280 653 q 257 563 280 587 q 200 540 233 540 q 144 563 168 540 q 121 620 121 587 q 144 676 121 653 q 200 700 168 700 l 200 700 m 200 325 q 257 301 233 325 q 280 245 280 278 q 257 189 280 212 q 200 166 233 166 q 144 189 168 166 q 121 245 121 212 q 144 301 121 278 q 200 325 168 325 "},"z":{"x_min":0,"x_max":1295.984375,"ha":1360,"o":"m 59 203 l 59 203 l 59 45 l 1236 45 l 1236 203 l 59 203 m 162 1015 l 162 1015 q 218 1023 189 1015 q 246 1047 246 1030 q 160 1083 246 1083 q 106 1073 132 1082 q 81 1047 81 1065 q 107 1019 81 1024 q 162 1015 133 1015 m 648 1015 l 648 1015 q 704 1023 675 1015 q 733 1047 733 1030 q 646 1083 733 1083 q 592 1073 617 1082 q 567 1047 567 1065 q 593 1019 567 1024 q 648 1015 619 1015 m 1163 983 l 1163 983 l 1163 259 l 1295 259 l 1295 -6 l 0 -6 l 0 259 l 132 259 l 132 983 q 55 998 91 984 q 19 1055 19 1012 q 66 1099 19 1083 q 158 1116 113 1114 q 248 1103 195 1116 q 300 1047 300 1089 q 264 1003 300 1019 q 188 981 227 987 l 188 259 l 365 259 l 366 440 q 307 525 307 474 q 340 619 307 554 q 400 684 374 684 q 455 619 422 684 q 488 524 488 553 q 421 439 488 474 l 421 259 l 619 259 l 619 983 q 542 998 578 984 q 505 1055 505 1012 q 553 1099 505 1083 q 644 1116 600 1114 q 734 1103 682 1116 q 786 1047 786 1089 q 750 1004 786 1019 q 675 983 714 988 l 675 259 l 871 259 l 871 440 q 824 485 837 460 q 812 526 812 509 q 843 620 812 555 q 898 685 874 685 q 957 620 920 685 q 993 525 993 554 q 927 440 993 476 l 927 259 l 1106 259 l 1106 983 q 1029 998 1066 984 q 992 1055 992 1012 q 1039 1099 992 1083 q 1130 1116 1086 1114 q 1220 1103 1168 1116 q 1272 1047 1272 1089 q 1237 1004 1272 1019 q 1163 983 1202 988 m 1133 1015 l 1133 1015 q 1190 1023 1161 1015 q 1219 1047 1219 1030 q 1132 1083 1219 1083 q 1078 1073 1104 1082 q 1053 1047 1053 1065 q 1079 1019 1053 1024 q 1133 1015 1105 1015 m 398 627 l 398 627 q 377 583 394 627 q 360 519 360 539 q 371 499 360 511 q 396 486 382 486 q 420 500 408 486 q 432 521 432 513 q 417 580 432 533 q 398 627 402 627 m 903 627 q 881 583 898 627 q 864 519 864 539 q 875 499 864 511 q 900 486 887 486 q 924 500 912 486 q 936 521 936 513 q 921 580 936 533 q 903 627 907 627 "},"ã":{"x_min":121.390625,"x_max":280.765625,"ha":294,"o":"m 200 700 q 257 676 233 700 q 280 620 280 653 q 257 563 280 587 q 200 540 233 540 q 144 563 168 540 q 121 620 121 587 q 144 676 121 653 q 200 700 168 700 l 200 700 m 200 325 q 257 301 233 325 q 280 245 280 278 q 257 189 280 212 q 200 166 233 166 q 144 189 168 166 q 121 245 121 212 q 144 301 121 278 q 200 325 168 325 "},"æ":{"x_min":121.390625,"x_max":280.765625,"ha":294,"o":"m 200 700 q 257 676 233 700 q 280 620 280 653 q 257 563 280 587 q 200 540 233 540 q 144 563 168 540 q 121 620 121 587 q 144 676 121 653 q 200 700 168 700 l 200 700 m 200 325 q 257 301 233 325 q 280 245 280 278 q 257 189 280 212 q 200 166 233 166 q 144 189 168 166 q 121 245 121 212 q 144 301 121 278 q 200 325 168 325 "},"®":{"x_min":121.390625,"x_max":280.765625,"ha":294,"o":"m 200 700 q 257 676 233 700 q 280 620 280 653 q 257 563 280 587 q 200 540 233 540 q 144 563 168 540 q 121 620 121 587 q 144 676 121 653 q 200 700 168 700 l 200 700 m 200 325 q 257 301 233 325 q 280 245 280 278 q 257 189 280 212 q 200 166 233 166 q 144 189 168 166 q 121 245 121 212 q 144 301 121 278 q 200 325 168 325 "},"É":{"x_min":121.390625,"x_max":280.765625,"ha":294,"o":"m 200 700 q 257 676 233 700 q 280 620 280 653 q 257 563 280 587 q 200 540 233 540 q 144 563 168 540 q 121 620 121 587 q 144 676 121 653 q 200 700 168 700 l 200 700 m 200 325 q 257 301 233 325 q 280 245 280 278 q 257 189 280 212 q 200 166 233 166 q 144 189 168 166 q 121 245 121 212 q 144 301 121 278 q 200 325 168 325 "},"~":{"x_min":121.390625,"x_max":280.765625,"ha":294,"o":"m 200 700 q 257 676 233 700 q 280 620 280 653 q 257 563 280 587 q 200 540 233 540 q 144 563 168 540 q 121 620 121 587 q 144 676 121 653 q 200 700 168 700 l 200 700 m 200 325 q 257 301 233 325 q 280 245 280 278 q 257 189 280 212 q 200 166 233 166 q 144 189 168 166 q 121 245 121 212 q 144 301 121 278 q 200 325 168 325 "},"³":{"x_min":121.390625,"x_max":280.765625,"ha":294,"o":"m 200 700 q 257 676 233 700 q 280 620 280 653 q 257 563 280 587 q 200 540 233 540 q 144 563 168 540 q 121 620 121 587 q 144 676 121 653 q 200 700 168 700 l 200 700 m 200 325 q 257 301 233 325 q 280 245 280 278 q 257 189 280 212 q 200 166 233 166 q 144 189 168 166 q 121 245 121 212 q 144 301 121 278 q 200 325 168 325 "},"¡":{"x_min":121.390625,"x_max":280.765625,"ha":294,"o":"m 200 700 q 257 676 233 700 q 280 620 280 653 q 257 563 280 587 q 200 540 233 540 q 144 563 168 540 q 121 620 121 587 q 144 676 121 653 q 200 700 168 700 l 200 700 m 200 325 q 257 301 233 325 q 280 245 280 278 q 257 189 280 212 q 200 166 233 166 q 144 189 168 166 q 121 245 121 212 q 144 301 121 278 q 200 325 168 325 "},"[":{"x_min":121.390625,"x_max":280.765625,"ha":294,"o":"m 200 700 q 257 676 233 700 q 280 620 280 653 q 257 563 280 587 q 200 540 233 540 q 144 563 168 540 q 121 620 121 587 q 144 676 121 653 q 200 700 168 700 l 200 700 m 200 325 q 257 301 233 325 q 280 245 280 278 q 257 189 280 212 q 200 166 233 166 q 144 189 168 166 q 121 245 121 212 q 144 301 121 278 q 200 325 168 325 "},"":{"x_min":121.390625,"x_max":280.765625,"ha":294,"o":"m 200 700 q 257 676 233 700 q 280 620 280 653 q 257 563 280 587 q 200 540 233 540 q 144 563 168 540 q 121 620 121 587 q 144 676 121 653 q 200 700 168 700 l 200 700 m 200 325 q 257 301 233 325 q 280 245 280 278 q 257 189 280 212 q 200 166 233 166 q 144 189 168 166 q 121 245 121 212 q 144 301 121 278 q 200 325 168 325 "},"":{"x_min":121.390625,"x_max":280.765625,"ha":294,"o":"m 200 700 q 257 676 233 700 q 280 620 280 653 q 257 563 280 587 q 200 540 233 540 q 144 563 168 540 q 121 620 121 587 q 144 676 121 653 q 200 700 168 700 l 200 700 m 200 325 q 257 301 233 325 q 280 245 280 278 q 257 189 280 212 q 200 166 233 166 q 144 189 168 166 q 121 245 121 212 q 144 301 121 278 q 200 325 168 325 "},"L":{"x_min":22.15625,"x_max":1477.734375,"ha":1551,"o":"m 1053 276 l 1053 276 q 896 184 962 220 q 762 122 830 148 q 610 75 694 96 q 396 31 525 55 q 284 31 322 31 q 217 31 247 31 q 149 31 187 31 q 38 31 112 31 q 27 31 27 31 q 23 71 27 52 q 38 96 18 90 q 111 102 87 109 q 216 100 136 94 q 336 254 300 226 q 426 341 371 282 q 397 380 412 360 q 368 421 383 400 q 308 376 340 404 q 271 352 276 348 q 189 433 225 427 q 149 489 153 440 q 226 604 147 518 q 351 692 306 689 q 552 631 448 697 q 773 507 655 564 q 907 477 851 469 q 1051 485 963 486 q 1122 557 1058 524 q 1264 575 1185 589 q 1281 537 1281 572 q 1260 507 1281 503 q 1163 495 1182 522 q 1131 452 1144 468 q 1352 339 1255 446 q 1477 45 1450 233 q 1393 24 1477 32 q 1196 15 1310 16 q 966 21 1083 14 q 781 41 849 27 q 774 63 770 43 q 788 84 778 82 q 984 87 892 96 q 1181 80 1076 78 q 1096 168 1121 126 q 1053 276 1072 210 m 412 650 q 383 655 395 651 q 360 658 372 658 q 342 635 342 638 q 358 606 360 625 q 334 588 356 590 q 313 588 323 586 q 296 610 303 590 q 238 553 267 592 q 196 500 208 514 q 234 464 204 484 q 284 427 264 444 q 327 468 318 449 q 378 485 337 488 q 423 444 393 477 q 461 373 453 411 q 509 405 486 394 q 558 423 524 412 q 610 438 592 434 q 554 532 575 516 q 499 562 533 548 q 457 578 472 568 q 417 596 443 588 q 416 624 413 607 q 412 650 419 640 l 412 650 m 286 92 l 286 92 q 349 91 343 92 q 412 92 354 90 q 647 155 557 126 q 801 212 737 184 q 915 270 864 240 q 1033 339 966 301 q 1031 377 1031 363 q 1044 430 1032 391 q 920 420 989 427 q 798 427 851 413 q 724 463 752 440 q 652 504 696 486 q 679 422 680 448 q 679 366 678 396 q 663 352 679 356 q 639 355 647 349 q 626 367 629 361 q 612 387 623 373 q 540 371 594 407 q 462 308 486 335 q 368 204 404 241 q 286 92 333 168 m 1098 409 q 1135 247 1102 301 q 1250 103 1169 193 q 1318 101 1279 102 q 1387 99 1358 100 q 1290 318 1351 264 q 1098 409 1228 373 "}," ":{"x_min":0,"x_max":0,"ha":1389},"%":{"x_min":121.390625,"x_max":280.765625,"ha":294,"o":"m 200 700 q 257 676 233 700 q 280 620 280 653 q 257 563 280 587 q 200 540 233 540 q 144 563 168 540 q 121 620 121 587 q 144 676 121 653 q 200 700 168 700 l 200 700 m 200 325 q 257 301 233 325 q 280 245 280 278 q 257 189 280 212 q 200 166 233 166 q 144 189 168 166 q 121 245 121 212 q 144 301 121 278 q 200 325 168 325 "},"P":{"x_min":4.0625,"x_max":695.125,"ha":730,"o":"m 689 730 l 689 476 l 695 476 l 695 376 l 689 376 l 689 94 l 695 94 l 695 -4 l 4 -4 l 4 94 l 8 94 l 8 376 l 4 376 l 4 476 l 8 476 l 8 730 l 4 730 l 4 829 l 695 829 l 695 730 l 689 730 l 689 730 m 532 730 l 532 476 l 644 476 l 644 730 l 532 730 l 532 730 m 367 730 l 367 476 l 486 476 l 486 730 l 367 730 l 367 730 m 202 730 l 202 476 l 322 476 l 322 730 l 202 730 l 202 730 m 54 730 l 54 476 l 157 476 l 157 730 l 54 730 l 54 730 m 532 376 l 532 94 l 644 94 l 644 376 l 532 376 l 532 376 m 367 376 l 367 94 l 486 94 l 486 376 l 367 376 l 367 376 m 202 376 l 202 94 l 322 94 l 322 376 l 202 376 l 202 376 m 54 376 l 54 94 l 157 94 l 157 376 l 54 376 "},"À":{"x_min":121.390625,"x_max":280.765625,"ha":294,"o":"m 200 700 q 257 676 233 700 q 280 620 280 653 q 257 563 280 587 q 200 540 233 540 q 144 563 168 540 q 121 620 121 587 q 144 676 121 653 q 200 700 168 700 l 200 700 m 200 325 q 257 301 233 325 q 280 245 280 278 q 257 189 280 212 q 200 166 233 166 q 144 189 168 166 q 121 245 121 212 q 144 301 121 278 q 200 325 168 325 "},"_":{"x_min":121.390625,"x_max":280.765625,"ha":294,"o":"m 200 700 q 257 676 233 700 q 280 620 280 653 q 257 563 280 587 q 200 540 233 540 q 144 563 168 540 q 121 620 121 587 q 144 676 121 653 q 200 700 168 700 l 200 700 m 200 325 q 257 301 233 325 q 280 245 280 278 q 257 189 280 212 q 200 166 233 166 q 144 189 168 166 q 121 245 121 212 q 144 301 121 278 q 200 325 168 325 "},"ñ":{"x_min":121.390625,"x_max":280.765625,"ha":294,"o":"m 200 700 q 257 676 233 700 q 280 620 280 653 q 257 563 280 587 q 200 540 233 540 q 144 563 168 540 q 121 620 121 587 q 144 676 121 653 q 200 700 168 700 l 200 700 m 200 325 q 257 301 233 325 q 280 245 280 278 q 257 189 280 212 q 200 166 233 166 q 144 189 168 166 q 121 245 121 212 q 144 301 121 278 q 200 325 168 325 "},"+":{"x_min":121.390625,"x_max":280.765625,"ha":294,"o":"m 200 700 q 257 676 233 700 q 280 620 280 653 q 257 563 280 587 q 200 540 233 540 q 144 563 168 540 q 121 620 121 587 q 144 676 121 653 q 200 700 168 700 l 200 700 m 200 325 q 257 301 233 325 q 280 245 280 278 q 257 189 280 212 q 200 166 233 166 q 144 189 168 166 q 121 245 121 212 q 144 301 121 278 q 200 325 168 325 "},"½":{"x_min":121.390625,"x_max":280.765625,"ha":294,"o":"m 200 700 q 257 676 233 700 q 280 620 280 653 q 257 563 280 587 q 200 540 233 540 q 144 563 168 540 q 121 620 121 587 q 144 676 121 653 q 200 700 168 700 l 200 700 m 200 325 q 257 301 233 325 q 280 245 280 278 q 257 189 280 212 q 200 166 233 166 q 144 189 168 166 q 121 245 121 212 q 144 301 121 278 q 200 325 168 325 "},"":{"x_min":121.390625,"x_max":280.765625,"ha":294,"o":"m 200 700 q 257 676 233 700 q 280 620 280 653 q 257 563 280 587 q 200 540 233 540 q 144 563 168 540 q 121 620 121 587 q 144 676 121 653 q 200 700 168 700 l 200 700 m 200 325 q 257 301 233 325 q 280 245 280 278 q 257 189 280 212 q 200 166 233 166 q 144 189 168 166 q 121 245 121 212 q 144 301 121 278 q 200 325 168 325 "},"Æ":{"x_min":121.390625,"x_max":280.765625,"ha":294,"o":"m 200 700 q 257 676 233 700 q 280 620 280 653 q 257 563 280 587 q 200 540 233 540 q 144 563 168 540 q 121 620 121 587 q 144 676 121 653 q 200 700 168 700 l 200 700 m 200 325 q 257 301 233 325 q 280 245 280 278 q 257 189 280 212 q 200 166 233 166 q 144 189 168 166 q 121 245 121 212 q 144 301 121 278 q 200 325 168 325 "},"Ë":{"x_min":121.390625,"x_max":280.765625,"ha":294,"o":"m 200 700 q 257 676 233 700 q 280 620 280 653 q 257 563 280 587 q 200 540 233 540 q 144 563 168 540 q 121 620 121 587 q 144 676 121 653 q 200 700 168 700 l 200 700 m 200 325 q 257 301 233 325 q 280 245 280 278 q 257 189 280 212 q 200 166 233 166 q 144 189 168 166 q 121 245 121 212 q 144 301 121 278 q 200 325 168 325 "},"'":{"x_min":121.390625,"x_max":280.765625,"ha":294,"o":"m 200 700 q 257 676 233 700 q 280 620 280 653 q 257 563 280 587 q 200 540 233 540 q 144 563 168 540 q 121 620 121 587 q 144 676 121 653 q 200 700 168 700 l 200 700 m 200 325 q 257 301 233 325 q 280 245 280 278 q 257 189 280 212 q 200 166 233 166 q 144 189 168 166 q 121 245 121 212 q 144 301 121 278 q 200 325 168 325 "},"ª":{"x_min":121.390625,"x_max":280.765625,"ha":294,"o":"m 200 700 q 257 676 233 700 q 280 620 280 653 q 257 563 280 587 q 200 540 233 540 q 144 563 168 540 q 121 620 121 587 q 144 676 121 653 q 200 700 168 700 l 200 700 m 200 325 q 257 301 233 325 q 280 245 280 278 q 257 189 280 212 q 200 166 233 166 q 144 189 168 166 q 121 245 121 212 q 144 301 121 278 q 200 325 168 325 "},"":{"x_min":121.390625,"x_max":280.765625,"ha":294,"o":"m 200 700 q 257 676 233 700 q 280 620 280 653 q 257 563 280 587 q 200 540 233 540 q 144 563 168 540 q 121 620 121 587 q 144 676 121 653 q 200 700 168 700 l 200 700 m 200 325 q 257 301 233 325 q 280 245 280 278 q 257 189 280 212 q 200 166 233 166 q 144 189 168 166 q 121 245 121 212 q 144 301 121 278 q 200 325 168 325 "},"":{"x_min":121.390625,"x_max":280.765625,"ha":294,"o":"m 200 700 q 257 676 233 700 q 280 620 280 653 q 257 563 280 587 q 200 540 233 540 q 144 563 168 540 q 121 620 121 587 q 144 676 121 653 q 200 700 168 700 l 200 700 m 200 325 q 257 301 233 325 q 280 245 280 278 q 257 189 280 212 q 200 166 233 166 q 144 189 168 166 q 121 245 121 212 q 144 301 121 278 q 200 325 168 325 "},"ð":{"x_min":121.390625,"x_max":280.765625,"ha":294,"o":"m 200 700 q 257 676 233 700 q 280 620 280 653 q 257 563 280 587 q 200 540 233 540 q 144 563 168 540 q 121 620 121 587 q 144 676 121 653 q 200 700 168 700 l 200 700 m 200 325 q 257 301 233 325 q 280 245 280 278 q 257 189 280 212 q 200 166 233 166 q 144 189 168 166 q 121 245 121 212 q 144 301 121 278 q 200 325 168 325 "},"T":{"x_min":18.96875,"x_max":1395.671875,"ha":1465,"o":"m 221 625 l 221 625 q 194 664 221 653 q 152 676 168 675 q 99 658 122 676 q 76 626 75 640 q 96 595 76 610 q 156 583 116 581 q 195 588 168 583 q 221 625 221 594 m 1019 215 l 918 402 l 1019 580 l 268 580 q 174 518 230 523 q 65 543 112 514 q 18 622 18 573 q 64 703 18 665 q 175 735 110 742 q 225 722 204 732 q 270 675 246 713 l 1101 676 q 1314 595 1233 676 q 1395 400 1395 514 q 1323 210 1395 285 q 1108 126 1251 135 l 282 127 q 172 65 254 69 q 79 91 127 63 q 31 169 31 120 q 74 245 31 211 q 181 276 117 278 q 281 217 256 273 l 1019 215 l 1019 215 m 1121 221 q 1252 272 1202 221 q 1302 400 1302 324 q 1254 527 1302 475 q 1126 580 1207 579 l 1032 408 l 1121 221 l 1121 221 m 234 170 q 207 207 234 199 q 165 216 179 216 q 111 200 134 216 q 88 170 88 184 q 109 139 88 154 q 168 124 130 124 q 207 132 179 124 q 234 170 234 140 "},"Þ":{"x_min":121.390625,"x_max":280.765625,"ha":294,"o":"m 200 700 q 257 676 233 700 q 280 620 280 653 q 257 563 280 587 q 200 540 233 540 q 144 563 168 540 q 121 620 121 587 q 144 676 121 653 q 200 700 168 700 l 200 700 m 200 325 q 257 301 233 325 q 280 245 280 278 q 257 189 280 212 q 200 166 233 166 q 144 189 168 166 q 121 245 121 212 q 144 301 121 278 q 200 325 168 325 "},"j":{"x_min":51.546875,"x_max":1057.265625,"ha":1109,"o":"m 267 227 l 267 307 q 196 409 240 366 q 80 487 153 453 q 209 465 173 482 q 270 425 245 449 l 269 872 q 215 1014 269 1020 q 135 942 161 1007 l 51 991 l 79 1043 q 159 1120 108 1096 q 258 1128 210 1144 q 342 1054 307 1113 q 375 884 377 995 l 373 415 q 443 474 413 462 q 553 491 474 486 q 438 404 466 440 q 373 307 410 368 l 373 228 q 463 270 428 265 q 550 280 499 274 q 449 218 484 244 q 373 116 415 191 l 373 9 l 268 9 l 269 123 q 206 221 244 176 q 96 300 167 266 q 210 277 174 290 q 267 227 246 263 l 267 227 m 771 227 l 771 307 q 700 409 743 366 q 583 487 657 453 q 713 465 677 482 q 774 425 749 449 l 773 872 q 719 1014 773 1020 q 640 942 665 1007 l 555 991 l 583 1043 q 663 1120 613 1096 q 763 1128 714 1144 q 846 1054 811 1113 q 878 884 880 995 l 877 415 q 947 474 917 462 q 1057 491 977 486 q 942 404 970 440 q 877 307 914 368 l 877 228 q 967 270 932 265 q 1053 280 1003 274 q 953 218 988 244 q 876 116 919 191 l 876 9 l 772 9 l 773 123 q 710 221 748 176 q 600 300 671 266 q 714 277 678 290 q 771 227 750 263 "},"1":{"x_min":121.390625,"x_max":280.765625,"ha":294,"o":"m 200 700 q 257 676 233 700 q 280 620 280 653 q 257 563 280 587 q 200 540 233 540 q 144 563 168 540 q 121 620 121 587 q 144 676 121 653 q 200 700 168 700 l 200 700 m 200 325 q 257 301 233 325 q 280 245 280 278 q 257 189 280 212 q 200 166 233 166 q 144 189 168 166 q 121 245 121 212 q 144 301 121 278 q 200 325 168 325 "},"":{"x_min":121.390625,"x_max":280.765625,"ha":294,"o":"m 200 700 q 257 676 233 700 q 280 620 280 653 q 257 563 280 587 q 200 540 233 540 q 144 563 168 540 q 121 620 121 587 q 144 676 121 653 q 200 700 168 700 l 200 700 m 200 325 q 257 301 233 325 q 280 245 280 278 q 257 189 280 212 q 200 166 233 166 q 144 189 168 166 q 121 245 121 212 q 144 301 121 278 q 200 325 168 325 "},"ä":{"x_min":121.390625,"x_max":280.765625,"ha":294,"o":"m 200 700 q 257 676 233 700 q 280 620 280 653 q 257 563 280 587 q 200 540 233 540 q 144 563 168 540 q 121 620 121 587 q 144 676 121 653 q 200 700 168 700 l 200 700 m 200 325 q 257 301 233 325 q 280 245 280 278 q 257 189 280 212 q 200 166 233 166 q 144 189 168 166 q 121 245 121 212 q 144 301 121 278 q 200 325 168 325 "},"¹":{"x_min":121.390625,"x_max":280.765625,"ha":294,"o":"m 200 700 q 257 676 233 700 q 280 620 280 653 q 257 563 280 587 q 200 540 233 540 q 144 563 168 540 q 121 620 121 587 q 144 676 121 653 q 200 700 168 700 l 200 700 m 200 325 q 257 301 233 325 q 280 245 280 278 q 257 189 280 212 q 200 166 233 166 q 144 189 168 166 q 121 245 121 212 q 144 301 121 278 q 200 325 168 325 "},"<":{"x_min":121.390625,"x_max":280.765625,"ha":294,"o":"m 200 700 q 257 676 233 700 q 280 620 280 653 q 257 563 280 587 q 200 540 233 540 q 144 563 168 540 q 121 620 121 587 q 144 676 121 653 q 200 700 168 700 l 200 700 m 200 325 q 257 301 233 325 q 280 245 280 278 q 257 189 280 212 q 200 166 233 166 q 144 189 168 166 q 121 245 121 212 q 144 301 121 278 q 200 325 168 325 "},"£":{"x_min":121.390625,"x_max":280.765625,"ha":294,"o":"m 200 700 q 257 676 233 700 q 280 620 280 653 q 257 563 280 587 q 200 540 233 540 q 144 563 168 540 q 121 620 121 587 q 144 676 121 653 q 200 700 168 700 l 200 700 m 200 325 q 257 301 233 325 q 280 245 280 278 q 257 189 280 212 q 200 166 233 166 q 144 189 168 166 q 121 245 121 212 q 144 301 121 278 q 200 325 168 325 "},"¬":{"x_min":121.390625,"x_max":280.765625,"ha":294,"o":"m 200 700 q 257 676 233 700 q 280 620 280 653 q 257 563 280 587 q 200 540 233 540 q 144 563 168 540 q 121 620 121 587 q 144 676 121 653 q 200 700 168 700 l 200 700 m 200 325 q 257 301 233 325 q 280 245 280 278 q 257 189 280 212 q 200 166 233 166 q 144 189 168 166 q 121 245 121 212 q 144 301 121 278 q 200 325 168 325 "},"t":{"x_min":18.96875,"x_max":1395.671875,"ha":1465,"o":"m 221 625 l 221 625 q 194 664 221 653 q 152 676 168 675 q 99 658 122 676 q 76 626 75 640 q 96 595 76 610 q 156 583 116 581 q 195 588 168 583 q 221 625 221 594 m 1019 215 l 918 402 l 1019 580 l 268 580 q 174 518 230 523 q 65 543 112 514 q 18 622 18 573 q 64 703 18 665 q 175 735 110 742 q 225 722 204 732 q 270 675 246 713 l 1101 676 q 1314 595 1233 676 q 1395 400 1395 514 q 1323 210 1395 285 q 1108 126 1251 135 l 282 127 q 172 65 254 69 q 79 91 127 63 q 31 169 31 120 q 74 245 31 211 q 181 276 117 278 q 281 217 256 273 l 1019 215 l 1019 215 m 1121 221 q 1252 272 1202 221 q 1302 400 1302 324 q 1254 527 1302 475 q 1126 580 1207 579 l 1032 408 l 1121 221 l 1121 221 m 234 170 q 207 207 234 199 q 165 216 179 216 q 111 200 134 216 q 88 170 88 184 q 109 139 88 154 q 168 124 130 124 q 207 132 179 124 q 234 170 234 140 "},"ù":{"x_min":121.390625,"x_max":280.765625,"ha":294,"o":"m 200 700 q 257 676 233 700 q 280 620 280 653 q 257 563 280 587 q 200 540 233 540 q 144 563 168 540 q 121 620 121 587 q 144 676 121 653 q 200 700 168 700 l 200 700 m 200 325 q 257 301 233 325 q 280 245 280 278 q 257 189 280 212 q 200 166 233 166 q 144 189 168 166 q 121 245 121 212 q 144 301 121 278 q 200 325 168 325 "},"W":{"x_min":81.375,"x_max":828.046875,"ha":869,"o":"m 334 681 l 334 681 q 440 767 396 754 q 512 775 484 781 q 574 707 565 765 q 540 618 582 649 q 452 594 507 594 q 355 605 396 594 q 449 497 423 542 q 480 392 476 452 q 477 300 484 344 q 429 216 470 256 q 306 172 386 174 q 193 200 226 170 q 141 275 166 223 q 120 370 115 326 q 231 596 138 511 l 81 714 l 126 769 l 241 680 q 527 1143 254 1140 q 736 1034 649 1143 q 828 589 823 925 l 826 4 l 727 4 l 728 582 q 668 948 728 855 q 519 1042 608 1040 q 377 918 423 1044 q 334 681 330 793 m 299 559 l 299 559 q 227 478 245 506 q 204 407 209 450 q 220 306 198 364 q 293 252 242 248 q 380 281 343 257 q 404 380 417 305 q 368 483 390 461 q 299 559 346 505 m 368 646 q 499 646 452 632 q 521 667 513 650 q 527 701 529 685 q 506 720 524 713 q 476 723 487 727 q 368 646 428 710 "},"ï":{"x_min":121.390625,"x_max":280.765625,"ha":294,"o":"m 200 700 q 257 676 233 700 q 280 620 280 653 q 257 563 280 587 q 200 540 233 540 q 144 563 168 540 q 121 620 121 587 q 144 676 121 653 q 200 700 168 700 l 200 700 m 200 325 q 257 301 233 325 q 280 245 280 278 q 257 189 280 212 q 200 166 233 166 q 144 189 168 166 q 121 245 121 212 q 144 301 121 278 q 200 325 168 325 "},">":{"x_min":121.390625,"x_max":280.765625,"ha":294,"o":"m 200 700 q 257 676 233 700 q 280 620 280 653 q 257 563 280 587 q 200 540 233 540 q 144 563 168 540 q 121 620 121 587 q 144 676 121 653 q 200 700 168 700 l 200 700 m 200 325 q 257 301 233 325 q 280 245 280 278 q 257 189 280 212 q 200 166 233 166 q 144 189 168 166 q 121 245 121 212 q 144 301 121 278 q 200 325 168 325 "},"v":{"x_min":27.8125,"x_max":950.109375,"ha":998,"o":"m 30 693 l 30 695 l 950 695 l 950 609 l 950 -2 l 846 -2 l 461 -2 l 458 -2 l 458 413 l 560 413 l 560 77 l 846 77 l 846 609 l 134 609 l 134 -2 l 30 -2 l 30 693 l 30 693 m 27 829 l 950 829 l 950 748 l 27 748 l 27 829 "},"û":{"x_min":121.390625,"x_max":280.765625,"ha":294,"o":"m 200 700 q 257 676 233 700 q 280 620 280 653 q 257 563 280 587 q 200 540 233 540 q 144 563 168 540 q 121 620 121 587 q 144 676 121 653 q 200 700 168 700 l 200 700 m 200 325 q 257 301 233 325 q 280 245 280 278 q 257 189 280 212 q 200 166 233 166 q 144 189 168 166 q 121 245 121 212 q 144 301 121 278 q 200 325 168 325 "},"Ò":{"x_min":121.390625,"x_max":280.765625,"ha":294,"o":"m 200 700 q 257 676 233 700 q 280 620 280 653 q 257 563 280 587 q 200 540 233 540 q 144 563 168 540 q 121 620 121 587 q 144 676 121 653 q 200 700 168 700 l 200 700 m 200 325 q 257 301 233 325 q 280 245 280 278 q 257 189 280 212 q 200 166 233 166 q 144 189 168 166 q 121 245 121 212 q 144 301 121 278 q 200 325 168 325 "},"":{"x_min":121.390625,"x_max":280.765625,"ha":294,"o":"m 200 700 q 257 676 233 700 q 280 620 280 653 q 257 563 280 587 q 200 540 233 540 q 144 563 168 540 q 121 620 121 587 q 144 676 121 653 q 200 700 168 700 l 200 700 m 200 325 q 257 301 233 325 q 280 245 280 278 q 257 189 280 212 q 200 166 233 166 q 144 189 168 166 q 121 245 121 212 q 144 301 121 278 q 200 325 168 325 "},"&":{"x_min":121.390625,"x_max":280.765625,"ha":294,"o":"m 200 700 q 257 676 233 700 q 280 620 280 653 q 257 563 280 587 q 200 540 233 540 q 144 563 168 540 q 121 620 121 587 q 144 676 121 653 q 200 700 168 700 l 200 700 m 200 325 q 257 301 233 325 q 280 245 280 278 q 257 189 280 212 q 200 166 233 166 q 144 189 168 166 q 121 245 121 212 q 144 301 121 278 q 200 325 168 325 "},"Ð":{"x_min":121.390625,"x_max":280.765625,"ha":294,"o":"m 200 700 q 257 676 233 700 q 280 620 280 653 q 257 563 280 587 q 200 540 233 540 q 144 563 168 540 q 121 620 121 587 q 144 676 121 653 q 200 700 168 700 l 200 700 m 200 325 q 257 301 233 325 q 280 245 280 278 q 257 189 280 212 q 200 166 233 166 q 144 189 168 166 q 121 245 121 212 q 144 301 121 278 q 200 325 168 325 "},"I":{"x_min":14.25,"x_max":767.796875,"ha":807,"o":"m 151 682 q 88 764 139 683 q 14 904 37 845 q 25 920 11 912 q 44 923 38 929 q 107 836 80 884 q 164 744 134 789 q 258 810 214 783 q 326 855 301 838 q 380 869 345 861 q 434 878 414 876 q 386 925 405 892 q 373 986 368 958 q 501 1107 390 1086 q 581 1083 544 1115 q 611 993 617 1050 q 578 924 607 957 q 512 874 549 890 q 597 866 556 871 q 680 849 638 861 q 740 753 714 832 q 767 585 766 674 q 753 430 769 480 q 729 372 737 381 q 700 380 716 366 q 684 398 684 394 q 700 483 690 448 q 709 579 711 518 q 695 682 706 658 q 658 783 684 707 q 587 616 623 740 q 596 560 589 592 q 606 515 604 529 q 614 440 611 457 q 623 366 617 424 q 681 223 661 282 q 710 30 700 163 q 640 18 674 26 q 571 14 607 10 q 562 26 563 14 q 567 43 561 39 q 603 55 583 53 q 642 63 623 57 q 607 248 638 167 q 564 341 575 328 q 477 336 547 346 q 362 321 407 325 q 326 167 346 240 q 290 14 307 94 q 230 11 260 10 q 198 22 201 12 q 208 39 196 27 q 242 52 219 50 q 276 189 252 123 q 310 325 299 254 q 301 325 310 329 q 287 330 291 321 q 303 454 292 404 q 349 619 314 504 q 345 709 348 668 q 343 799 343 750 q 246 727 319 771 q 151 682 172 682 l 151 682 m 513 1059 q 460 1034 488 1059 q 431 984 432 1008 q 484 921 428 925 q 523 936 499 919 q 554 976 546 953 q 553 1029 562 1000 q 513 1059 544 1058 l 513 1059 m 398 816 q 402 717 400 767 q 408 619 405 668 q 474 628 440 623 q 541 636 507 632 q 575 734 560 693 q 619 816 590 775 q 554 832 585 823 q 486 845 522 841 q 440 832 459 841 q 398 816 420 823 l 398 816 m 391 567 q 372 474 379 547 q 365 383 365 400 q 461 388 381 376 q 557 409 541 401 q 547 498 560 432 q 528 583 534 565 q 461 580 514 587 q 391 567 408 573 "},"G":{"x_min":63.765625,"x_max":1310.71875,"ha":1378,"o":"m 733 251 q 638 311 710 311 q 544 250 571 311 q 665 242 597 240 q 733 251 693 244 l 733 251 m 792 269 q 930 342 866 297 q 1074 428 994 387 q 904 509 996 448 q 691 568 811 570 q 458 517 551 565 q 252 404 364 468 q 367 324 313 358 q 476 271 421 290 q 633 362 522 362 q 792 269 750 362 l 792 269 m 646 164 q 498 174 555 164 q 394 205 442 184 q 295 261 346 227 q 162 347 243 296 q 122 346 161 347 q 73 358 83 346 q 64 403 66 366 q 77 440 61 440 q 118 444 84 440 q 155 450 152 448 q 428 600 332 555 q 701 650 524 646 q 924 599 833 652 q 1161 474 1014 545 q 1206 464 1181 464 q 1297 466 1232 464 q 1310 427 1307 466 q 1300 386 1312 388 q 1207 382 1241 375 q 1153 377 1173 389 q 918 235 1042 307 q 646 164 795 163 l 646 164 m 497 453 q 661 461 564 464 q 801 450 758 459 q 808 426 807 449 q 798 402 809 403 q 651 394 704 391 q 497 402 598 396 q 489 426 491 402 q 497 453 488 450 "},"`":{"x_min":121.390625,"x_max":280.765625,"ha":294,"o":"m 200 700 q 257 676 233 700 q 280 620 280 653 q 257 563 280 587 q 200 540 233 540 q 144 563 168 540 q 121 620 121 587 q 144 676 121 653 q 200 700 168 700 l 200 700 m 200 325 q 257 301 233 325 q 280 245 280 278 q 257 189 280 212 q 200 166 233 166 q 144 189 168 166 q 121 245 121 212 q 144 301 121 278 q 200 325 168 325 "},"·":{"x_min":121.390625,"x_max":280.765625,"ha":294,"o":"m 200 700 q 257 676 233 700 q 280 620 280 653 q 257 563 280 587 q 200 540 233 540 q 144 563 168 540 q 121 620 121 587 q 144 676 121 653 q 200 700 168 700 l 200 700 m 200 325 q 257 301 233 325 q 280 245 280 278 q 257 189 280 212 q 200 166 233 166 q 144 189 168 166 q 121 245 121 212 q 144 301 121 278 q 200 325 168 325 "},"":{"x_min":121.390625,"x_max":280.765625,"ha":294,"o":"m 200 700 q 257 676 233 700 q 280 620 280 653 q 257 563 280 587 q 200 540 233 540 q 144 563 168 540 q 121 620 121 587 q 144 676 121 653 q 200 700 168 700 l 200 700 m 200 325 q 257 301 233 325 q 280 245 280 278 q 257 189 280 212 q 200 166 233 166 q 144 189 168 166 q 121 245 121 212 q 144 301 121 278 q 200 325 168 325 "},"r":{"x_min":18.3125,"x_max":1317.6875,"ha":1383,"o":"m 172 668 q 234 541 216 613 q 252 391 252 468 q 235 244 252 316 q 175 118 218 173 l 1159 118 q 1099 244 1116 172 q 1083 391 1083 316 q 1100 541 1083 468 q 1163 668 1118 613 l 172 668 l 172 668 m 1315 118 l 1317 118 l 1317 17 l 18 17 l 18 118 l 18 118 q 100 251 71 186 q 129 391 129 316 q 18 669 129 550 l 18 669 l 18 771 l 1317 771 l 1317 669 l 1315 669 q 1205 391 1205 550 q 1234 251 1205 316 q 1315 118 1262 186 l 1315 118 m 368 448 l 967 448 l 967 339 l 368 339 l 368 448 "},"¿":{"x_min":121.390625,"x_max":280.765625,"ha":294,"o":"m 200 700 q 257 676 233 700 q 280 620 280 653 q 257 563 280 587 q 200 540 233 540 q 144 563 168 540 q 121 620 121 587 q 144 676 121 653 q 200 700 168 700 l 200 700 m 200 325 q 257 301 233 325 q 280 245 280 278 q 257 189 280 212 q 200 166 233 166 q 144 189 168 166 q 121 245 121 212 q 144 301 121 278 q 200 325 168 325 "},"ý":{"x_min":121.390625,"x_max":280.765625,"ha":294,"o":"m 200 700 q 257 676 233 700 q 280 620 280 653 q 257 563 280 587 q 200 540 233 540 q 144 563 168 540 q 121 620 121 587 q 144 676 121 653 q 200 700 168 700 l 200 700 m 200 325 q 257 301 233 325 q 280 245 280 278 q 257 189 280 212 q 200 166 233 166 q 144 189 168 166 q 121 245 121 212 q 144 301 121 278 q 200 325 168 325 "},"x":{"x_min":121.390625,"x_max":280.765625,"ha":294,"o":"m 200 700 q 257 676 233 700 q 280 620 280 653 q 257 563 280 587 q 200 540 233 540 q 144 563 168 540 q 121 620 121 587 q 144 676 121 653 q 200 700 168 700 l 200 700 m 200 325 q 257 301 233 325 q 280 245 280 278 q 257 189 280 212 q 200 166 233 166 q 144 189 168 166 q 121 245 121 212 q 144 301 121 278 q 200 325 168 325 "},"è":{"x_min":121.390625,"x_max":280.765625,"ha":294,"o":"m 200 700 q 257 676 233 700 q 280 620 280 653 q 257 563 280 587 q 200 540 233 540 q 144 563 168 540 q 121 620 121 587 q 144 676 121 653 q 200 700 168 700 l 200 700 m 200 325 q 257 301 233 325 q 280 245 280 278 q 257 189 280 212 q 200 166 233 166 q 144 189 168 166 q 121 245 121 212 q 144 301 121 278 q 200 325 168 325 "},"º":{"x_min":121.390625,"x_max":280.765625,"ha":294,"o":"m 200 700 q 257 676 233 700 q 280 620 280 653 q 257 563 280 587 q 200 540 233 540 q 144 563 168 540 q 121 620 121 587 q 144 676 121 653 q 200 700 168 700 l 200 700 m 200 325 q 257 301 233 325 q 280 245 280 278 q 257 189 280 212 q 200 166 233 166 q 144 189 168 166 q 121 245 121 212 q 144 301 121 278 q 200 325 168 325 "},"Ø":{"x_min":121.390625,"x_max":280.765625,"ha":294,"o":"m 200 700 q 257 676 233 700 q 280 620 280 653 q 257 563 280 587 q 200 540 233 540 q 144 563 168 540 q 121 620 121 587 q 144 676 121 653 q 200 700 168 700 l 200 700 m 200 325 q 257 301 233 325 q 280 245 280 278 q 257 189 280 212 q 200 166 233 166 q 144 189 168 166 q 121 245 121 212 q 144 301 121 278 q 200 325 168 325 "},"÷":{"x_min":121.390625,"x_max":280.765625,"ha":294,"o":"m 200 700 q 257 676 233 700 q 280 620 280 653 q 257 563 280 587 q 200 540 233 540 q 144 563 168 540 q 121 620 121 587 q 144 676 121 653 q 200 700 168 700 l 200 700 m 200 325 q 257 301 233 325 q 280 245 280 278 q 257 189 280 212 q 200 166 233 166 q 144 189 168 166 q 121 245 121 212 q 144 301 121 278 q 200 325 168 325 "},"h":{"x_min":121.390625,"x_max":280.765625,"ha":294,"o":"m 200 700 q 257 676 233 700 q 280 620 280 653 q 257 563 280 587 q 200 540 233 540 q 144 563 168 540 q 121 620 121 587 q 144 676 121 653 q 200 700 168 700 l 200 700 m 200 325 q 257 301 233 325 q 280 245 280 278 q 257 189 280 212 q 200 166 233 166 q 144 189 168 166 q 121 245 121 212 q 144 301 121 278 q 200 325 168 325 "},".":{"x_min":121.390625,"x_max":280.765625,"ha":294,"o":"m 200 700 q 257 676 233 700 q 280 620 280 653 q 257 563 280 587 q 200 540 233 540 q 144 563 168 540 q 121 620 121 587 q 144 676 121 653 q 200 700 168 700 l 200 700 m 200 325 q 257 301 233 325 q 280 245 280 278 q 257 189 280 212 q 200 166 233 166 q 144 189 168 166 q 121 245 121 212 q 144 301 121 278 q 200 325 168 325 "},";":{"x_min":121.390625,"x_max":280.765625,"ha":294,"o":"m 200 700 q 257 676 233 700 q 280 620 280 653 q 257 563 280 587 q 200 540 233 540 q 144 563 168 540 q 121 620 121 587 q 144 676 121 653 q 200 700 168 700 l 200 700 m 200 325 q 257 301 233 325 q 280 245 280 278 q 257 189 280 212 q 200 166 233 166 q 144 189 168 166 q 121 245 121 212 q 144 301 121 278 q 200 325 168 325 "},"f":{"x_min":121.390625,"x_max":280.765625,"ha":294,"o":"m 200 700 q 257 676 233 700 q 280 620 280 653 q 257 563 280 587 q 200 540 233 540 q 144 563 168 540 q 121 620 121 587 q 144 676 121 653 q 200 700 168 700 l 200 700 m 200 325 q 257 301 233 325 q 280 245 280 278 q 257 189 280 212 q 200 166 233 166 q 144 189 168 166 q 121 245 121 212 q 144 301 121 278 q 200 325 168 325 "},"":{"x_min":121.390625,"x_max":280.765625,"ha":294,"o":"m 200 700 q 257 676 233 700 q 280 620 280 653 q 257 563 280 587 q 200 540 233 540 q 144 563 168 540 q 121 620 121 587 q 144 676 121 653 q 200 700 168 700 l 200 700 m 200 325 q 257 301 233 325 q 280 245 280 278 q 257 189 280 212 q 200 166 233 166 q 144 189 168 166 q 121 245 121 212 q 144 301 121 278 q 200 325 168 325 "},"A":{"x_min":56.046875,"x_max":716.828125,"ha":752,"o":"m 644 30 q 551 18 636 23 q 365 11 465 13 q 182 9 265 8 q 99 16 100 10 q 114 94 92 61 q 162 163 136 128 q 83 295 132 229 q 75 406 33 360 q 194 392 117 454 q 338 305 272 330 q 305 524 323 405 q 273 743 287 644 q 191 656 228 712 q 138 611 154 600 q 113 620 132 613 q 92 642 94 627 q 116 758 87 674 q 162 855 145 842 q 202 882 184 871 q 251 908 219 894 q 258 1038 231 972 q 316 1095 273 1077 q 400 1118 358 1112 q 469 1095 433 1123 q 492 1005 505 1068 q 441 927 482 952 q 371 884 400 902 l 374 855 q 461 856 414 854 q 535 847 509 859 q 613 751 558 830 q 716 555 668 671 q 709 457 716 520 q 692 331 701 394 q 678 221 684 269 q 676 169 672 173 q 677 95 691 150 q 659 42 663 40 q 638 113 647 46 q 621 195 629 180 q 641 400 626 282 q 649 535 655 519 q 608 632 644 564 q 518 792 573 700 q 524 563 524 632 q 531 335 524 493 q 598 169 555 290 q 644 30 640 49 l 644 30 m 393 1068 q 338 1046 363 1068 q 301 997 313 1024 q 291 944 289 969 q 322 912 294 918 q 375 926 347 906 q 417 968 404 945 q 431 1031 432 995 q 393 1068 429 1067 l 393 1068 m 123 375 q 166 289 117 354 q 217 212 215 225 q 265 241 248 227 q 297 264 282 255 q 202 330 277 270 q 123 375 128 390 l 123 375 m 183 76 q 245 69 187 72 q 371 66 303 67 q 499 68 440 66 q 562 76 557 70 q 526 182 560 103 q 470 299 492 261 q 468 552 465 465 q 468 806 472 639 q 421 810 425 807 q 374 813 416 812 q 337 804 356 808 q 314 784 319 800 q 355 537 335 658 q 396 290 375 416 q 250 163 338 229 q 183 76 163 97 l 183 76 m 278 891 q 270 874 278 884 q 258 859 262 863 q 247 856 254 855 q 234 855 240 857 q 219 852 214 848 q 206 842 223 857 q 163 756 195 834 q 140 674 130 678 q 194 728 147 670 q 276 822 241 786 q 305 836 286 832 q 333 850 324 840 l 328 876 q 302 883 316 883 q 278 891 288 883 "},"6":{"x_min":121.390625,"x_max":280.765625,"ha":294,"o":"m 200 700 q 257 676 233 700 q 280 620 280 653 q 257 563 280 587 q 200 540 233 540 q 144 563 168 540 q 121 620 121 587 q 144 676 121 653 q 200 700 168 700 l 200 700 m 200 325 q 257 301 233 325 q 280 245 280 278 q 257 189 280 212 q 200 166 233 166 q 144 189 168 166 q 121 245 121 212 q 144 301 121 278 q 200 325 168 325 "},"O":{"x_min":42.046875,"x_max":1318.359375,"ha":1384,"o":"m 42 467 q 261 471 170 471 q 480 481 352 471 q 729 524 615 491 q 944 603 844 558 q 1121 696 1036 644 q 1318 829 1207 748 q 1187 500 1275 622 q 1013 280 1099 377 q 800 130 939 196 q 549 42 661 65 q 298 14 435 18 q 42 7 162 11 l 42 467 l 42 467 m 152 353 l 152 128 q 341 133 246 131 q 525 151 437 136 q 675 194 613 165 q 812 265 737 223 q 960 370 891 310 q 1104 571 1028 430 q 967 489 1017 501 q 847 450 918 476 q 685 399 769 421 q 497 366 601 377 q 436 359 450 361 q 400 357 423 358 q 326 355 378 356 q 152 353 275 355 "},"n":{"x_min":85.453125,"x_max":1486.546875,"ha":1560,"o":"m 85 621 l 262 823 l 442 623 l 615 823 l 798 623 l 969 823 l 1148 623 l 1322 823 l 1486 623 l 1486 476 l 1322 677 l 1148 476 l 969 677 l 798 476 l 615 677 l 442 476 l 262 677 l 86 476 l 85 621 l 85 621 m 85 163 l 262 366 l 442 165 l 615 366 l 798 165 l 969 366 l 1148 165 l 1322 366 l 1486 165 l 1486 18 l 1322 219 l 1148 18 l 969 219 l 798 18 l 615 219 l 442 18 l 262 219 l 86 18 l 85 163 "},"3":{"x_min":121.390625,"x_max":280.765625,"ha":294,"o":"m 200 700 q 257 676 233 700 q 280 620 280 653 q 257 563 280 587 q 200 540 233 540 q 144 563 168 540 q 121 620 121 587 q 144 676 121 653 q 200 700 168 700 l 200 700 m 200 325 q 257 301 233 325 q 280 245 280 278 q 257 189 280 212 q 200 166 233 166 q 144 189 168 166 q 121 245 121 212 q 144 301 121 278 q 200 325 168 325 "},"9":{"x_min":121.390625,"x_max":280.765625,"ha":294,"o":"m 200 700 q 257 676 233 700 q 280 620 280 653 q 257 563 280 587 q 200 540 233 540 q 144 563 168 540 q 121 620 121 587 q 144 676 121 653 q 200 700 168 700 l 200 700 m 200 325 q 257 301 233 325 q 280 245 280 278 q 257 189 280 212 q 200 166 233 166 q 144 189 168 166 q 121 245 121 212 q 144 301 121 278 q 200 325 168 325 "},"l":{"x_min":22.15625,"x_max":1477.734375,"ha":1551,"o":"m 1053 276 l 1053 276 q 896 184 962 220 q 762 122 830 148 q 610 75 694 96 q 396 31 525 55 q 284 31 322 31 q 217 31 247 31 q 149 31 187 31 q 38 31 112 31 q 27 31 27 31 q 23 71 27 52 q 38 96 18 90 q 111 102 87 109 q 216 100 136 94 q 336 254 300 226 q 426 341 371 282 q 397 380 412 360 q 368 421 383 400 q 308 376 340 404 q 271 352 276 348 q 189 433 225 427 q 149 489 153 440 q 226 604 147 518 q 351 692 306 689 q 552 631 448 697 q 773 507 655 564 q 907 477 851 469 q 1051 485 963 486 q 1122 557 1058 524 q 1264 575 1185 589 q 1281 537 1281 572 q 1260 507 1281 503 q 1163 495 1182 522 q 1131 452 1144 468 q 1352 339 1255 446 q 1477 45 1450 233 q 1393 24 1477 32 q 1196 15 1310 16 q 966 21 1083 14 q 781 41 849 27 q 774 63 770 43 q 788 84 778 82 q 984 87 892 96 q 1181 80 1076 78 q 1096 168 1121 126 q 1053 276 1072 210 m 412 650 q 383 655 395 651 q 360 658 372 658 q 342 635 342 638 q 358 606 360 625 q 334 588 356 590 q 313 588 323 586 q 296 610 303 590 q 238 553 267 592 q 196 500 208 514 q 234 464 204 484 q 284 427 264 444 q 327 468 318 449 q 378 485 337 488 q 423 444 393 477 q 461 373 453 411 q 509 405 486 394 q 558 423 524 412 q 610 438 592 434 q 554 532 575 516 q 499 562 533 548 q 457 578 472 568 q 417 596 443 588 q 416 624 413 607 q 412 650 419 640 l 412 650 m 286 92 l 286 92 q 349 91 343 92 q 412 92 354 90 q 647 155 557 126 q 801 212 737 184 q 915 270 864 240 q 1033 339 966 301 q 1031 377 1031 363 q 1044 430 1032 391 q 920 420 989 427 q 798 427 851 413 q 724 463 752 440 q 652 504 696 486 q 679 422 680 448 q 679 366 678 396 q 663 352 679 356 q 639 355 647 349 q 626 367 629 361 q 612 387 623 373 q 540 371 594 407 q 462 308 486 335 q 368 204 404 241 q 286 92 333 168 m 1098 409 q 1135 247 1102 301 q 1250 103 1169 193 q 1318 101 1279 102 q 1387 99 1358 100 q 1290 318 1351 264 q 1098 409 1228 373 "},"¤":{"x_min":121.390625,"x_max":280.765625,"ha":294,"o":"m 200 700 q 257 676 233 700 q 280 620 280 653 q 257 563 280 587 q 200 540 233 540 q 144 563 168 540 q 121 620 121 587 q 144 676 121 653 q 200 700 168 700 l 200 700 m 200 325 q 257 301 233 325 q 280 245 280 278 q 257 189 280 212 q 200 166 233 166 q 144 189 168 166 q 121 245 121 212 q 144 301 121 278 q 200 325 168 325 "},"4":{"x_min":121.390625,"x_max":280.765625,"ha":294,"o":"m 200 700 q 257 676 233 700 q 280 620 280 653 q 257 563 280 587 q 200 540 233 540 q 144 563 168 540 q 121 620 121 587 q 144 676 121 653 q 200 700 168 700 l 200 700 m 200 325 q 257 301 233 325 q 280 245 280 278 q 257 189 280 212 q 200 166 233 166 q 144 189 168 166 q 121 245 121 212 q 144 301 121 278 q 200 325 168 325 "},"p":{"x_min":4.0625,"x_max":695.125,"ha":730,"o":"m 689 730 l 689 476 l 695 476 l 695 376 l 689 376 l 689 94 l 695 94 l 695 -4 l 4 -4 l 4 94 l 8 94 l 8 376 l 4 376 l 4 476 l 8 476 l 8 730 l 4 730 l 4 829 l 695 829 l 695 730 l 689 730 l 689 730 m 532 730 l 532 476 l 644 476 l 644 730 l 532 730 l 532 730 m 367 730 l 367 476 l 486 476 l 486 730 l 367 730 l 367 730 m 202 730 l 202 476 l 322 476 l 322 730 l 202 730 l 202 730 m 54 730 l 54 476 l 157 476 l 157 730 l 54 730 l 54 730 m 532 376 l 532 94 l 644 94 l 644 376 l 532 376 l 532 376 m 367 376 l 367 94 l 486 94 l 486 376 l 367 376 l 367 376 m 202 376 l 202 94 l 322 94 l 322 376 l 202 376 l 202 376 m 54 376 l 54 94 l 157 94 l 157 376 l 54 376 "},"à":{"x_min":121.390625,"x_max":280.765625,"ha":294,"o":"m 200 700 q 257 676 233 700 q 280 620 280 653 q 257 563 280 587 q 200 540 233 540 q 144 563 168 540 q 121 620 121 587 q 144 676 121 653 q 200 700 168 700 l 200 700 m 200 325 q 257 301 233 325 q 280 245 280 278 q 257 189 280 212 q 200 166 233 166 q 144 189 168 166 q 121 245 121 212 q 144 301 121 278 q 200 325 168 325 "},"Ü":{"x_min":121.390625,"x_max":280.765625,"ha":294,"o":"m 200 700 q 257 676 233 700 q 280 620 280 653 q 257 563 280 587 q 200 540 233 540 q 144 563 168 540 q 121 620 121 587 q 144 676 121 653 q 200 700 168 700 l 200 700 m 200 325 q 257 301 233 325 q 280 245 280 278 q 257 189 280 212 q 200 166 233 166 q 144 189 168 166 q 121 245 121 212 q 144 301 121 278 q 200 325 168 325 "},"ó":{"x_min":121.390625,"x_max":280.765625,"ha":294,"o":"m 200 700 q 257 676 233 700 q 280 620 280 653 q 257 563 280 587 q 200 540 233 540 q 144 563 168 540 q 121 620 121 587 q 144 676 121 653 q 200 700 168 700 l 200 700 m 200 325 q 257 301 233 325 q 280 245 280 278 q 257 189 280 212 q 200 166 233 166 q 144 189 168 166 q 121 245 121 212 q 144 301 121 278 q 200 325 168 325 "}}}
